<svg xmlns="http://www.w3.org/2000/svg" viewBox="0 0 69.25 138.58"><defs><style>.cls-1{fill:#2d2d28;stroke:#94948f;}.cls-1,.cls-2,.cls-3{stroke-miterlimit:10;}.cls-2{fill:#b2b2a1;stroke:#4d4d45;}.cls-2,.cls-3{stroke-width:0.5px;}.cls-3{fill:none;stroke:#71716a;}</style></defs><g id="Шар_2" data-name="Шар 2"><g id="Шар_2-2" data-name="Шар 2"><path class="cls-1" d="M8.5,138.23c1-9,4-61.09,4.18-67.5.47-21.39,2-23.47-.53-27.64-3.51-5.73-10.23-8-10.72-13.61a13.72,13.72,0,0,1,.43-4.39,9.68,9.68,0,0,1,3.32-5.36c2.87-2.1,6.82-1.8,9.43-.53C17,20.33,18,22.14,18.36,21.87c.73-.48-3.91-5.64-3-11.25.55-3.36,3.13-7.15,7.07-8.14C27.11,1.31,31,4.75,31.22,5c4.71,4.3,4,12.25,4.71,12.21s-.61-6.38,2.87-10.09A10.21,10.21,0,0,1,50,5.05c.68.31,4,1.92,5,5.36,1.76,5.95-3.74,12.9-3.42,13.07.16.09,1-2.18,3-3.58a9.6,9.6,0,0,1,10.92.69c3.72,3.11,3.25,8.46,3.22,8.74-.79,7.59-9.34,8.05-12.54,17.29-.7,2-.68,5.54-.64,12.54.06,9.9.75,17.22.75,17.25,1,10.24,2.39,31.32,4.29,62.14"/><path class="cls-2" d="M3.69,20.67a20.62,20.62,0,0,0-2.44-1c-.74-.24-.91-.24-1-.17s.14.8,2.17,2.95"/><path class="cls-2" d="M20.93,2.53A20.75,20.75,0,0,0,19,.76c-.61-.48-.76-.55-.85-.5s-.14.81,1,3.52"/><path class="cls-2" d="M49.56,4.53a19.14,19.14,0,0,0,0-2.64c0-.78-.1-.93-.19-1s-.7.42-2,3.08"/><path class="cls-2" d="M66.92,21.76a18.58,18.58,0,0,0,1.47-2.18c.4-.68.44-.84.37-.91s-.81,0-3.33,1.51"/></g><g id="Шар_3" data-name="Шар 3"><path class="cls-3" d="M25.19,67.41c1.82-2.18,3.22-2.58,4.18-2.49,1.89.15,2.52,2.17,4.5,2.33,1.81.14,2-1.81,4-2,2.75-.35,3.93,3.1,6.39,2.65,1.92-.35,2.29-2.66,4.45-2.81a4,4,0,0,1,2.42.72"/><path class="cls-3" d="M16.07,105.21c1.79-3.11,3.3-3.76,4.34-3.78,2.6-.06,3.83,3.75,6.67,3.82,1.86,0,3.42-1.55,4.42-2.86"/><path class="cls-3" d="M14.78,78.54c1.16-2.32,2.27-3,3.14-3.06,1.89-.19,2.72,2.26,4.86,2.17s2.38-2.35,4.38-2.41c2.21-.07,2.88,2.69,5,2.57s2.4-2.59,4.3-2.89c1.2-.19,3,.49,5.67,4.34"/><path class="cls-3" d="M54.55,93.2c-2.86-3.16-5.08-3.75-6.65-3.64-2.87.2-4.88,3.75-6.85,2.89-.37-.16-.36-.3-1-.86a9.49,9.49,0,0,0-5-2.46c-3.27-.22-4.62,3.7-6.75,3-1.63-.54-1.54-3-3.48-3.38a4.22,4.22,0,0,0-2.63.59,9.09,9.09,0,0,0-3.54,2.9"/><path class="cls-3" d="M29.58,116.21a4.48,4.48,0,0,1,2.12-3.12c2.51-1.09,4.72,2.81,8.36,2.57,4.11-.27,5.1-5.52,8.72-5.66,1.63-.07,3.9.91,6.73,5.35"/><path class="cls-3" d="M12.61,128c.14-1.14.48-2.42,1.33-2.73,1.41-.5,2.69,2.21,4.83,2s2.62-2.92,4.34-2.77c1.38.13,1.56,2,3.16,2.4s2.51-1.91,4.6-1.92,2.24,2.11,4.29,2.36c2.57.32,3.25-2.83,6-2.79s4,3.44,7,3.06a4.15,4.15,0,0,0,1.66-.59"/></g></g></svg>