<svg xmlns="http://www.w3.org/2000/svg" viewBox="0 0 69.25 138.58"><defs><style>.cls-1{fill:#ddb368;stroke:#b58d58;}.cls-1,.cls-2{stroke-miterlimit:10;}.cls-2{fill:#b2b2a1;stroke:#4d4d45;stroke-width:0.5px;}.cls-3{fill:#b58d58;}</style></defs><g id="Шар_2" data-name="Шар 2"><g id="Шар_2-2" data-name="Шар 2"><path class="cls-1" d="M8.5,138.23c1-9,4-61.09,4.18-67.5.47-21.39,2-23.47-.53-27.64-3.51-5.73-10.23-8-10.72-13.61a13.72,13.72,0,0,1,.43-4.39,9.68,9.68,0,0,1,3.32-5.36c2.87-2.1,6.82-1.8,9.43-.53C17,20.33,18,22.14,18.36,21.87c.73-.48-3.91-5.64-3-11.25.55-3.36,3.13-7.15,7.07-8.14C27.11,1.31,31,4.75,31.22,5c4.71,4.3,4,12.25,4.71,12.21s-.61-6.38,2.87-10.09A10.21,10.21,0,0,1,50,5.05c.68.31,4,1.92,5,5.36,1.76,5.95-3.74,12.9-3.42,13.07.16.09,1-2.18,3-3.58a9.6,9.6,0,0,1,10.92.69c3.72,3.11,3.25,8.46,3.22,8.74-.79,7.59-9.34,8.05-12.54,17.29-.7,2-.68,5.54-.64,12.54.06,9.9.75,17.22.75,17.25,1,10.24,2.39,31.32,4.29,62.14"/><path class="cls-2" d="M3.69,20.67a20.62,20.62,0,0,0-2.44-1c-.74-.24-.91-.24-1-.17s.14.8,2.17,2.95"/><path class="cls-2" d="M20.93,2.53A20.75,20.75,0,0,0,19,.76c-.61-.48-.76-.55-.85-.5s-.14.81,1,3.52"/><path class="cls-2" d="M49.56,4.53a19.14,19.14,0,0,0,0-2.64c0-.78-.1-.93-.19-1s-.7.42-2,3.08"/><path class="cls-2" d="M66.92,21.76a18.58,18.58,0,0,0,1.47-2.18c.4-.68.44-.84.37-.91s-.81,0-3.33,1.51"/><path class="cls-3" d="M28,51.27a.51.51,0,0,0-.61.35A13.63,13.63,0,0,1,23,57.41c-.27-1.06-.55-2.13-.82-3.2a.48.48,0,0,0-.7-.29.51.51,0,0,0-.53.24c-.52,1-1,2-1.57,2.91l-.22-.48L18.5,55a.51.51,0,0,0-.69-.18.53.53,0,0,0-.18.69l.79,1.8a1.67,1.67,0,0,0,.53.82.82.82,0,0,0,1-.15,2.45,2.45,0,0,0,.49-.74l.47-.87.56-1c.25,1,.51,2,.76,3a.46.46,0,0,0,.65.31.35.35,0,0,0,.26-.06,14.82,14.82,0,0,0,5.2-6.7A.49.49,0,0,0,28,51.27Z"/><path class="cls-3" d="M48,76.37a26.07,26.07,0,0,0-1.21,4.83L45.2,77.93a.4.4,0,0,0-.36-.24.49.49,0,0,0-.61.2l-.73,1.32L43,78.09a.47.47,0,0,0-.33-.23.43.43,0,0,0-.1-.09.49.49,0,0,0-.68.18A4.82,4.82,0,0,0,41,80.14l-2.11-5.51a.52.52,0,0,0-.62-.35.5.5,0,0,0-.35.61c.85,2.22,1.71,4.43,2.56,6.65a.51.51,0,0,0,.61.35l.07,0a.54.54,0,0,0,.47.11.51.51,0,0,0,.35-.61s0-.07,0-.11,0,0,0,0A1.64,1.64,0,0,1,42,81a2.41,2.41,0,0,1,0-.38,3.65,3.65,0,0,1,.09-.74,4.58,4.58,0,0,1,.27-.79L43,80.55a.51.51,0,0,0,.87,0l.77-1.41c.67,1.34,1.34,2.69,2,4,.24.49.9.2.93-.25A25.64,25.64,0,0,1,49,76.63C49.21,76,48.24,75.77,48,76.37Z"/><path class="cls-3" d="M56.94,67.29l-2-6.16c-.2-.61-1.16-.34-1,.27.32,1,.65,2,1,3.07-.4-.17-.93.24-.64.68L56,67.67C56.32,68.12,57.12,67.85,56.94,67.29Z"/><path class="cls-3" d="M29,86.72l-2.21,4.11a13.3,13.3,0,0,1-.53-3.5.53.53,0,0,0-.12-.55.42.42,0,0,0-.41-.13.49.49,0,0,0-.41.22L22.5,89.09l-.12-1.75a.5.5,0,0,0-.5-.5.51.51,0,0,0-.5.5c.06.91.13,1.82.19,2.73a.51.51,0,0,0,.85.36l2.83-2.27a14.48,14.48,0,0,0,.9,4.06.51.51,0,0,0,.92.12l.9-1.69a.44.44,0,0,0,.17-.31l1.68-3.12C30.12,86.65,29.26,86.15,29,86.72Z"/><path class="cls-3" d="M59.25,97.69l-1.2-7c-.11-.63-1.08-.36-1,.27l.83,4.74L55.25,92a.51.51,0,0,0-.87,0L53.3,94.32c-.45-1.06-.91-2.11-1.36-3.17a.51.51,0,0,0-.69-.18.53.53,0,0,0-.18.69c.6,1.37,1.19,2.75,1.78,4.12a.51.51,0,0,0,.87,0l1.18-2.52,3.44,4.81A.5.5,0,0,0,59.25,97.69Z"/><path class="cls-3" d="M18,70.63c-.65.75-1.3,1.49-1.94,2.24-.06-.65-.11-1.29-.16-1.93a.51.51,0,0,0-.76-.43l-2.93,1.94q1-2.61,2-5.22c.23-.6-.74-.86-1-.27L10.73,73.6a.5.5,0,0,0,.73.57L15,71.82c.06.76.12,1.51.19,2.27,0,.39.54.71.85.35l2.69-3.1C19.15,70.85,18.45,70.14,18,70.63Z"/><path class="cls-3" d="M43.82,57.91c-.06-.63-1.06-.64-1,0l.42,4.9-3-3.67c-.29-.36-.84,0-.85.35,0,.59,0,1.18-.07,1.77a9.21,9.21,0,0,1-1.49-2.51.52.52,0,0,0-.61-.35.51.51,0,0,0-.35.62,10.3,10.3,0,0,0,2.56,3.82.5.5,0,0,0,.85-.35l.06-1.67,3.2,3.89a.51.51,0,0,0,.86-.35Q44.1,61.14,43.82,57.91Z"/><path class="cls-3" d="M19.09,101.28c-.14-.63-1.11-.36-1,.27a19.22,19.22,0,0,1,.39,5.61l-2-3.25a.5.5,0,0,0-.91.12c-.22.85-.43,1.7-.65,2.56-.29-.9-.57-1.8-.86-2.69a.5.5,0,0,0-.83-.22,8.41,8.41,0,0,1-2,1.39l2.32-2.6c.43-.48-.28-1.19-.71-.71l-3.67,4.13a.5.5,0,0,0,.48.83,9.51,9.51,0,0,0,3.71-1.84c.39,1.22.77,2.44,1.16,3.66a.51.51,0,0,0,1,0l.78-3.1,2.12,3.49c.2.33.85.33.92-.12A20.51,20.51,0,0,0,19.09,101.28Z"/><path class="cls-3" d="M52,117.92q-.6-3.94-1.21-7.89c-.09-.63-1.06-.36-1,.27q.49,3.28,1,6.57l-3.74-3a.51.51,0,0,0-.86.36c.08,1.54.15,3.09.22,4.63l-2.29-2.36a.5.5,0,0,0-.83.22l-.4,1.16-1.08-2.71a.5.5,0,0,0-.91-.12,13.27,13.27,0,0,1-2.31,2.64A15.5,15.5,0,0,0,39.92,113c.07-.64-.93-.64-1,0a13.93,13.93,0,0,1-2.34,6.23c-.28.42.28.94.69.68a14.21,14.21,0,0,0,3.93-3.6c.41,1,.82,2.08,1.24,3.12a.5.5,0,0,0,1,0c.19-.55.38-1.1.58-1.66l2.64,2.73a.51.51,0,0,0,.86-.35c-.08-1.62-.16-3.23-.23-4.85l3.87,3.12A.5.5,0,0,0,52,117.92Z"/><path class="cls-3" d="M19.74,130.92c-.14.4-.29.79-.44,1.18l-.45-2a.51.51,0,0,0-.74-.3l-3.18,2.4,2-3.41a.5.5,0,0,0-.86-.51l-3.3,5.58c-.24.4.27,1,.68.68l4.58-3.45.66,2.83a.5.5,0,0,0,1,0c.35-.92.69-1.85,1-2.77C20.93,130.59,20,130.32,19.74,130.92Z"/></g></g></svg>