<svg xmlns="http://www.w3.org/2000/svg" viewBox="0 0 68.55 139.16"><defs><style>.cls-1{fill:#b2b2a1;}.cls-1,.cls-2{stroke:#4d4d45;stroke-miterlimit:10;}.cls-2{fill:#858579;}</style></defs><g id="Шар_2" data-name="Шар 2"><g id="Шар_2-2" data-name="Шар 2"><path class="cls-1" d="M7.65,138.81c1-9,4-61.1,4.18-67.5.47-21.4,2-23.48-.53-27.65-3.51-5.73-10.23-8-10.72-13.6A13.8,13.8,0,0,1,1,25.66a9.6,9.6,0,0,1,3.32-5.35c2.86-2.1,6.82-1.81,9.43-.54,2.34,1.14,3.35,2.95,3.75,2.68.73-.48-3.91-5.64-3-11.25.54-3.36,3.13-7.15,7.07-8.14,4.68-1.18,8.58,2.27,8.79,2.46,4.71,4.3,3.95,12.25,4.71,12.22S34.47,11.36,38,7.65a10.19,10.19,0,0,1,11.17-2c.68.31,4,1.91,5,5.36,1.76,6-3.74,12.9-3.43,13.07s1-2.19,3-3.58a9.59,9.59,0,0,1,10.92.68c3.72,3.11,3.24,8.47,3.22,8.74-.79,7.6-9.34,8.06-12.54,17.3-.7,2-.68,5.54-.64,12.54.06,9.9.75,17.22.75,17.25,1,10.24,2.39,31.31,4.28,62.14"/><path class="cls-1" d="M.3,19.45l1.37,1,1.16.86"/><path class="cls-1" d="M17.9.24l1.73,3.14"/><path class="cls-1" d="M50.24,1.39C49.63,2.8,49,4.2,48.43,5.61"/><path class="cls-1" d="M68.25,19.32l-3,2.34"/></g><g id="Шар_3" data-name="Шар 3"><path class="cls-2" d="M13.08,49c.59,0,1.48,0,2.57,0,6.74.07,12-.44,14.79,1.41a3.21,3.21,0,0,1,1.45,1.77,3.12,3.12,0,0,1-.33,2.17C29.9,57.75,21.3,58.7,15,58.48c-.91,0-1.65-.08-2.13-.12"/><path class="cls-2" d="M54.26,59.58c-11.69-1.4-20.89.44-22.74,5.15a4.19,4.19,0,0,0-.17,3c2.27,6.06,22,3.08,23.27,2.88"/><path class="cls-2" d="M12.09,76.92a87.74,87.74,0,0,1,10.83,1.35c8.46,1.59,13.17,2.54,14.78,6.16a7.69,7.69,0,0,1-.8,7.26c-1,1.36-2.88,2.9-14.22,3.62-4.67.29-8.63.3-11.57.24"/><path class="cls-2" d="M56.75,100.19C43,101,21.28,103,20.42,109.4a4.21,4.21,0,0,0,.86,2.79c6.26,9.71,33.45,4.19,36.54,3.53"/><path class="cls-2" d="M9.14,126.32c6-.3,25-1,30.47,3.17.74.56,2.62,2,2.37,3.41s-2.78,2.25-4,2.59c-7,2-23.49,1.39-29.61,1.12"/></g></g></svg>