<svg xmlns="http://www.w3.org/2000/svg" xmlns:xlink="http://www.w3.org/1999/xlink" viewBox="0 0 790.37 599.61"><defs><style>.cls-1,.cls-10,.cls-13,.cls-14,.cls-18,.cls-24,.cls-25,.cls-26,.cls-28,.cls-5,.cls-9{fill:none;}.cls-2{clip-path:url(#clip-path);}.cls-3{fill:#d7c7bf;}.cls-4{fill:#ffd8ca;}.cls-5{stroke:#7c5938;}.cls-10,.cls-13,.cls-14,.cls-18,.cls-24,.cls-25,.cls-26,.cls-28,.cls-5,.cls-9{stroke-miterlimit:10;}.cls-10,.cls-13,.cls-14,.cls-18,.cls-24,.cls-25,.cls-26,.cls-5,.cls-9{stroke-width:3px;}.cls-6{fill:#e38674;}.cls-7{fill:#6b4f40;}.cls-8{fill:#7c5938;}.cls-9{stroke:#bba997;}.cls-10{stroke:#938472;}.cls-11,.cls-15{fill:#462c32;}.cls-12{fill:#754f4b;}.cls-13,.cls-18{stroke:#8b6068;}.cls-14{stroke:#754f4b;}.cls-15,.cls-17,.cls-18,.cls-19{fill-rule:evenodd;}.cls-16{fill:#feb8ac;}.cls-17{fill:#ebd9d6;}.cls-19{fill:#e39089;}.cls-20{fill:#ffd352;}.cls-21{fill:#54241d;}.cls-22{fill:#cab6a2;}.cls-23{fill:#f29a54;}.cls-24{stroke:#9c6325;}.cls-25{stroke:#ca7d39;}.cls-26,.cls-28{stroke:#7c4838;}.cls-27{fill:#b05541;}.cls-28{stroke-width:3.37px;}.cls-29{fill:#ffccd9;}.cls-30{fill:#ffd334;}.cls-31{fill:#532f00;}</style><clipPath id="clip-path" transform="translate(30.67 93.58)"><rect class="cls-1" width="750" height="500"/></clipPath></defs><g id="Шар_2" data-name="Шар 2"><g id="OBJECTS"><g class="cls-2"><path class="cls-3" d="M27.84,417.75c-6.21-.33-18.31,9.06-28.44,30.39C-5,457.36-16,465.24-21.19,475.27a111,111,0,0,0-9.48,26.47H149.74s.33-49.54-9.8-61.92S34.05,418.08,27.84,417.75Z" transform="translate(30.67 93.58)"/><path class="cls-3" d="M92.22,345.84c-14.76-1.46-33.74,1.08-57.3,18.94S13.12,408,22.57,421.08,60,454.45,99.15,455.78s66-13.4,66.21-34.43-16.81-48.29-27-56.67C126.79,355.23,107.69,347.36,92.22,345.84Z" transform="translate(30.67 93.58)"/><path class="cls-3" d="M36.06,368.67s-1.8-21.29-1.62-32.32,4.37-26.75,9.32-27.44c12.32-1.73,40.36,39.76,40.36,39.76s-15,5.94-24.86,9.16S36.06,368.67,36.06,368.67Z" transform="translate(30.67 93.58)"/><path class="cls-4" d="M70.06,350s-15.65-23.86-22.14-23.27c-3.1.28-5.07,7.9-5.85,16C41.21,351.6,43.83,362,43.83,362S60.32,350.89,70.06,350Z" transform="translate(30.67 93.58)"/><path class="cls-3" d="M72.35,348c-2.95-3.84-9.18-5.26-13.41-6.7-1.16-.4-2.09,1.31-1,2,2.47,1.44,4.91,2.91,7.25,4.54.12.09.25.15.38.23a52,52,0,0,0-9.07-.84,1.24,1.24,0,0,0-.19,2.47,69,69,0,0,1,7.77,1.83,34.57,34.57,0,0,0,5,1.23Q70.65,350.31,72.35,348Z" transform="translate(30.67 93.58)"/><path class="cls-3" d="M161.41,401.32s10-18.67,14.13-28.81,6.33-26.25,1.94-29c-10.93-6.75-53.54,19.33-53.54,19.33s11.77,11.7,19.84,18.81S161.41,401.32,161.41,401.32Z" transform="translate(30.67 93.58)"/><path class="cls-4" d="M136.66,370s24.05-15.2,29.94-11.93c2.81,1.56,1.69,9.34-.73,17.05-2.65,8.45-9.17,16.8-9.17,16.8S145.49,374.91,136.66,370Z" transform="translate(30.67 93.58)"/><path class="cls-3" d="M135.3,367.2c4.27-2.27,10.7-.95,15.24-.49,1.25.13,1.46,2.07.17,2.2-2.89.28-5.76.59-8.61,1.1l-.44,0a56,56,0,0,1,8.87,3,1.23,1.23,0,0,1-.79,2.34,73.53,73.53,0,0,0-8-1.59,37.83,37.83,0,0,1-5.15-1C136.18,371,135.75,369.08,135.3,367.2Z" transform="translate(30.67 93.58)"/><path class="cls-5" d="M93.3,414.81a49.91,49.91,0,0,1-4.88,14.27" transform="translate(30.67 93.58)"/><path class="cls-5" d="M78.75,415.3s2.24,11.56,8.38,14,13,.13,17.15-6" transform="translate(30.67 93.58)"/><path class="cls-6" d="M87.5,408.94c2.7-1.52,11.53,1.09,13.76,4s-3.3,5.3-7.65,5.15S84.8,410.47,87.5,408.94Z" transform="translate(30.67 93.58)"/><path class="cls-7" d="M67.84,390.25c-5.53-3.93-10.33-6.07-17.13-6.09a1.16,1.16,0,0,0-.58,2.14c3.73,2.45,7.79,4.84,11.3,7.57s5.49,6.66,8.9,9.41a1.86,1.86,0,0,0,3.07-.81C74.72,397.17,72,393.23,67.84,390.25Z" transform="translate(30.67 93.58)"/><path class="cls-7" d="M144,412.61c-4.11-4.57-6.81-5.56-12.91-5.58-5.64,0-11.39,1.73-15.26,5.83-1.41,1.49,0,4.41,2.11,3.64l.05,0c3.69-.55,7.12-1.64,10.8-2.31,4.59-.85,9.76.14,14.39.4A1.16,1.16,0,0,0,144,412.61Z" transform="translate(30.67 93.58)"/><path class="cls-8" d="M36.46,398.73c-2.25-6.2-6.35-9.85-11.32-14.1-4-3.44-9.12-7.91-14.63-8.31a1.16,1.16,0,0,0-.58,2.14c2.4,1.11,4.18,3.76,6.16,5.45,2.19,1.87,4.46,3.63,6.61,5.55,4.14,3.71,7.36,7.58,12.07,10.57A1.16,1.16,0,0,0,36.46,398.73Z" transform="translate(30.67 93.58)"/><path class="cls-8" d="M30.61,405.09c-2.33-2.81-7-3.93-10.28-5.37-4.78-2.1-9.62-2.8-14.74-3.75A1.15,1.15,0,0,0,5,398.19c4.53,1.9,9,3.88,13.68,5.49,3.54,1.22,7.32,3.5,11.14,3.37A1.16,1.16,0,0,0,30.61,405.09Z" transform="translate(30.67 93.58)"/><path class="cls-8" d="M179.81,430.07c-3.22-3.45-8.52-4.3-13.32-4.82-6.7-.73-12.56-1.31-18.79.76a1.75,1.75,0,0,0-.75.2l-.38.2c-1.57.84-.74,2.7.87,2.86,5.55.55,11.18.26,16.69,1,2.5.35,12,1.78,14.71,1.86A1.23,1.23,0,0,0,179.81,430.07Z" transform="translate(30.67 93.58)"/><path class="cls-8" d="M171.07,444.32A31.34,31.34,0,0,0,159.5,437c-4.15-1.66-8.06-3.3-12.71-2.89-1.52.14-1.88,2-.37,2.41,4,1.2,7.86,3.73,11.78,5.3,4.22,1.68,7.35,3.27,12,3.9C171.06,445.8,171.73,445,171.07,444.32Z" transform="translate(30.67 93.58)"/><path class="cls-9" d="M70.32,450.35s21.25,7.19,36.61,4.25" transform="translate(30.67 93.58)"/><path class="cls-3" d="M122.28,449.13c-1.28.25-33.72,13.21-39.44,26.64-4.29,10.08-2.19,26.4,12,26s15.77-13.05,25.14-14.54,31.7-6.59,34-16.25c2.61-11.11-2.11-20.23-10-23S122.28,449.13,122.28,449.13Z" transform="translate(30.67 93.58)"/><path class="cls-10" d="M84.38,495.45s.32-10.13,6.21-13.07" transform="translate(30.67 93.58)"/><path class="cls-10" d="M91.24,501s1.31-11.44,7.19-14.06" transform="translate(30.67 93.58)"/><path class="cls-9" d="M83.4,474.54s9.81-10.26,17.32-15.36c8.17-5.56,18.63-11.12,28.1-12.42S144,447.91,144,447.91" transform="translate(30.67 93.58)"/><path class="cls-9" d="M107.25,497.09s3.6-6.87,9.16-8.83,27.45-4.57,32.68-11.76" transform="translate(30.67 93.58)"/><path class="cls-3" d="M8.55,426.82c5.46-4.23,8.94-7.62,26.15-1.31s25.65,13.35,37.62,28.67,15.39,34.63,7.52,42.15-21.44,6.16-26.26-3.22-5.33-20.61-16.45-26.43c-5.94-3.12-28.57-5.48-35.11-14C-3.69,445.17,3.1,431.05,8.55,426.82Z" transform="translate(30.67 93.58)"/><path class="cls-10" d="M64.77,484s5.23,8.83,1.63,17" transform="translate(30.67 93.58)"/><path class="cls-10" d="M74.9,483.69s3.59,10.13,0,16" transform="translate(30.67 93.58)"/><path class="cls-9" d="M24.24,422.57A68.39,68.39,0,0,1,51,432.7c12.75,8.5,19.28,17.65,19.28,17.65s10.13,14,11.77,24.51c0,0,2.61,13.73-1,19.94" transform="translate(30.67 93.58)"/><path class="cls-9" d="M3.65,454.93s7.84,5.23,15.69,6.53,15,2.29,20.92,7.52,7.51,10.46,9.47,14.71,3.27,11.44,5.89,13.4" transform="translate(30.67 93.58)"/><path class="cls-11" d="M610.7,447.31a81.42,81.42,0,0,0-7.76,30.12C602,494.51,596.42,506,596.42,506H759.13s-.62-103.09-.93-111.79-50.62-14-50.62-14Z" transform="translate(30.67 93.58)"/><path class="cls-12" d="M700.93,461.31c-.23-.51-1.09-.26-1.06.29.14,1.84.8,3.43,1,5.28.49,4.25-3.11,6.3-7.08,5.23-2.29-.61-5.08-2.38-6.92,0a3,3,0,0,0-.49,1.76c-.44,3.39-1.88,5.93-5.71,5.14s-7.66-3.4-11-5.37c-4.46-2.63-5,1.58-5.11,5.33-.07,2-.06,4.64-2.49,5.51-3.47,1.25-7.56-1.9-9.59-4.14-3.54-3.89-8.54-12.19-6-17.53a.48.48,0,0,0-.83-.48c-5,8,4.37,21.69,12.08,24.27,3,1,7.18.69,8.42-2.71a15.47,15.47,0,0,0,.76-4.92c0-.95,0-1.89.09-2.83.12-2.09,2.47.06,3.16.44,4.56,2.54,8.88,5.57,14.33,5.32a5.31,5.31,0,0,0,4.78-6.64c-.57-2.31,5.34-.24,7-.26a8.24,8.24,0,0,0,5.85-2C705.46,469.89,702.29,464.37,700.93,461.31Z" transform="translate(30.67 93.58)"/><path class="cls-12" d="M707,440.71a.79.79,0,0,0-1.36.79c2.65,5,2.73,9.83,3.55,15.28a.57.57,0,0,0,1,.14C712.73,451.67,709.88,445.24,707,440.71Z" transform="translate(30.67 93.58)"/><path class="cls-12" d="M715.73,440.38a31.71,31.71,0,0,0-2.6-6.9c-.72-1.63-1.68-3.88-3.37-4.72a.64.64,0,0,0-.92.71l.06.3a.51.51,0,0,0,.42.39,25.15,25.15,0,0,1,2.42,4.91,23.85,23.85,0,0,0,3.33,5.69C715.35,441.09,715.8,440.73,715.73,440.38Z" transform="translate(30.67 93.58)"/><path class="cls-11" d="M660.08,264.73c10.55-2.18,22-1.86,38.19,10.25s41,47.2,46.58,59.93,19.87,40.36,13,61.79c-3.79,11.89-36,.62-36,.62s-12.73-4.66-16.15-16.46S689,326.52,680.88,317.52c-2.78-3.1-6.83-8.7-6.83-8.7s-6.9-2.39-11.18-3.41c-6.52-1.56-26.39-10.87-23.91-22.36S651.22,266.55,660.08,264.73Z" transform="translate(30.67 93.58)"/><path class="cls-13" d="M643.62,294.85s-.93-13.35,7.76-17.39" transform="translate(30.67 93.58)"/><path class="cls-13" d="M654.18,300.75s1.55-13.35,7.76-16.77" transform="translate(30.67 93.58)"/><path class="cls-14" d="M670.1,307s11.6,2.6,19.21-4" transform="translate(30.67 93.58)"/><path class="cls-11" d="M569.16,469.21s-16.83,4.81-19.94,17.33c-2.55,10.33,4.8,20.16,16.25,19.46a192.78,192.78,0,0,0,29.91-4.25c7.75-1.76,11.08-12.73,10.34-20.16S587.62,464.26,569.16,469.21Z" transform="translate(30.67 93.58)"/><path class="cls-13" d="M564.44,483.33s-5,13.67,5.59,21.43" transform="translate(30.67 93.58)"/><path class="cls-13" d="M586.79,483.33s2.8,12.73,0,18.63" transform="translate(30.67 93.58)"/><path class="cls-14" d="M602.94,476.5s6.52,6.52,0,18.32" transform="translate(30.67 93.58)"/><path class="cls-15" d="M606.34,351.05s-20.63,16.15-27.41,31.37-6.46,27.32-9.54,33.84-2.82,25.11,9.85,34.47,48.65,5.28,74.83-8.07,60-35.09,60.66-59-24-36.33-40.65-45S619.67,340.57,606.34,351.05Z" transform="translate(30.67 93.58)"/><path class="cls-11" d="M545.75,364.55C542.22,376,551.68,385.1,560,394.7c6,6.95,15.52,13.5,15.52,13.5L598,364.11S549.29,353.14,545.75,364.55Z" transform="translate(30.67 93.58)"/><path class="cls-16" d="M574.42,397.47s-22.25-20.12-19.56-24.4,26.84,5.09,26.84,5.09S574.1,389.71,574.42,397.47Z" transform="translate(30.67 93.58)"/><path class="cls-11" d="M581.74,373c-2,.92-4,2-6,2.71-1.88.7-3.32,1.08-4.3,3.06-.43.86.12,2,1.1,1.69,3.69-1,7-3,10.45-4.85A1.44,1.44,0,0,0,581.74,373Z" transform="translate(30.67 93.58)"/><path class="cls-11" d="M584.2,375a58.27,58.27,0,0,0-7.79,5.19,8.94,8.94,0,0,0-3.57,4.94c-.15.74.6,1.4,1.21.79,1.22-1.24,2.9-1.72,4.18-2.92a62.42,62.42,0,0,1,6.91-6C586.31,376.22,585.49,374.36,584.2,375Z" transform="translate(30.67 93.58)"/><path class="cls-11" d="M651.69,301.1c10.13-1.72,14.34,11.31,19.16,21.44a152.54,152.54,0,0,1,6.57,17.62l-51.07,6.22S641.56,302.83,651.69,301.1Z" transform="translate(30.67 93.58)"/><path class="cls-16" d="M668.13,336s-7.79-25.43-13-24.37S647,336.47,647,336.47,661.18,333.34,668.13,336Z" transform="translate(30.67 93.58)"/><path class="cls-11" d="M642.22,334.94c1.8-1.46,3.69-2.87,5.36-4.42s2.58-2.56,4.86-2.82c1-.11,1.73.7,1,1.47-2.71,2.9-6.1,5.21-9.43,7.62C642.4,338,640.73,336.15,642.22,334.94Z" transform="translate(30.67 93.58)"/><path class="cls-11" d="M642.93,337.7a74.11,74.11,0,0,1,8.47-5.2,11.09,11.09,0,0,1,6.23-1.62c.74.1,1,.95.14,1.29-1.72.69-3,2-4.67,2.75a82.37,82.37,0,0,0-8.79,4.2C643,339.89,641.69,338.62,642.93,337.7Z" transform="translate(30.67 93.58)"/><path class="cls-14" d="M611.32,453.84s28.26-3.42,49.69-14.29,43.16-27.63,48.44-40.37" transform="translate(30.67 93.58)"/><path class="cls-17" d="M620.64,369.06s-9,3.42-9.94,14.91a94.13,94.13,0,0,0,.62,22.67c.62,4.65,4.66,23.28,15.53,21.11s36-13.35,36.33-23.91-23.29-30.43-28.88-33.53S620.64,369.06,620.64,369.06Z" transform="translate(30.67 93.58)"/><path class="cls-18" d="M622.81,380.55s5.28,17.39,12.11,23.91" transform="translate(30.67 93.58)"/><path class="cls-18" d="M617.53,397s10.87,11.8,17.39,8.38,5.9-14.28,4.35-19.56" transform="translate(30.67 93.58)"/><path class="cls-19" d="M617.22,379.88c.56-2.29,4.53-4,7.94-4.3s1.69,5.9-1.42,7.15C621.17,383.76,616.66,382.18,617.22,379.88Z" transform="translate(30.67 93.58)"/><path class="cls-20" d="M645.24,369.19c-2.64-4.78,1.61-18.42,13.16-21.11,10.51-2.45,17.45,1.49,19,7.94s-5.61,16-14.4,18.24S647.87,374,645.24,369.19Z" transform="translate(30.67 93.58)"/><path class="cls-21" d="M668.18,355.31c2.71,5.49.9,12-4,14.5s-11.13.1-13.83-5.4-1.69-11,4-14.5S665.48,349.81,668.18,355.31Z" transform="translate(30.67 93.58)"/><path class="cls-20" d="M578.42,404.3c-2.38-4.46,1.49-17,12.17-19.53,9.72-2.27,16.15,1.38,17.55,7.35S603,407,594.83,409,581.82,410.67,578.42,404.3Z" transform="translate(30.67 93.58)"/><path class="cls-21" d="M599.64,391.46c2.51,5.08.83,11.09-3.73,13.41s-10.29.1-12.79-5-1.56-10.16,3.73-13.41S597.14,386.38,599.64,391.46Z" transform="translate(30.67 93.58)"/><path class="cls-22" d="M583.66,418.44c-7.26-1.41-14.74-2.07-22.09-.74-6.25,1.12-13.24,2.45-17.63,7.75-.52.63,0,1.92.85,1.56,2.68-1.14,5.6-1.64,8.36-2.6a51.81,51.81,0,0,1,10.74-2.55c6.64-.81,13.15-.08,19.77-1.27A1.15,1.15,0,0,0,583.66,418.44Z" transform="translate(30.67 93.58)"/><path class="cls-22" d="M582.15,428.81a97.48,97.48,0,0,0-16.3,3.94c-5.47,1.67-10.1,5.15-14.82,8.4-1.11.76-.41,2.91.94,2.37,5-2,10-4.2,15-6.25,5.46-2.22,10.55-3.41,15.57-6.73C583.26,430.09,583.06,428.7,582.15,428.81Z" transform="translate(30.67 93.58)"/><path class="cls-22" d="M709.43,333.42c-11.19,4.15-17.4,14.49-22.93,24.38-.64,1.15.72,2.77,1.92,1.91,4.32-3.09,7.09-7.19,10.25-11.4a33.41,33.41,0,0,1,6.07-6.33c2.32-1.83,3.8-4.44,5.88-6.52C711.44,334.64,710.62,333,709.43,333.42Z" transform="translate(30.67 93.58)"/><path class="cls-22" d="M727.77,349.42c-12.42.51-23.86,8.44-34,14.87a1.57,1.57,0,0,0,1.59,2.71c6.16-3.22,12.5-6.11,18.61-9.43,4.66-2.54,10.47-3.23,14.31-6.95A.71.71,0,0,0,727.77,349.42Z" transform="translate(30.67 93.58)"/><path class="cls-23" d="M108.1-92.15C89.63-87.94,41.84-29.22,51.21-6.21c9.44,23.17,26,42.64,41.17,52.94s30,24.25,54.86,35.5S318.9,87.67,318.9,87.67,308.51,33.86,274.53-14.68c-16.95-24.21-61.9-60.76-82.91-68.39S126.58-96.35,108.1-92.15Z" transform="translate(30.67 93.58)"/><path class="cls-23" d="M125.19,61.26c4.77,12.5,14,18.62,26.09,26.26s18.2,16.09,19.73,24,1.79,22,6.78,27.32,14.7,5.36,21.17,3.36,10.57-6.9,10.21-13.21a80.45,80.45,0,0,0-6.61-27.87c-5.27-12.65-17.08-42.55-27.82-54.5-10.33-11.51-20-19.32-36.28-14.57S120.42,48.76,125.19,61.26Z" transform="translate(30.67 93.58)"/><path class="cls-24" d="M187.58,127.47s4.8,9.79.52,15.17" transform="translate(30.67 93.58)"/><path class="cls-24" d="M199.15,125.73s4.8,9.79.52,15.17" transform="translate(30.67 93.58)"/><path class="cls-23" d="M317.61,83.43S335.77,89.34,341.93,98s13.38,17.66,17.08,34c2.54,11.23,2.55,22-3.28,26.94-7.32,6.19-25.24,4.21-26.8-5.57s.1-15.22-2.42-22.08-16.25-16-16.25-16Z" transform="translate(30.67 93.58)"/><path class="cls-24" d="M339.71,146.65a14.21,14.21,0,0,1-.62,14.38" transform="translate(30.67 93.58)"/><path class="cls-24" d="M350.41,146.81a14.16,14.16,0,0,1-.62,14.37" transform="translate(30.67 93.58)"/><path class="cls-23" d="M261.24,29.84c-9.44-1-31.29-4.3-50.71,14.9s-21.41,40.34-6,59.16,58.55,34.66,84,29.14S326.69,108.86,324,91.53s-9.25-38.65-21.25-48.78S270.69,30.85,261.24,29.84Z" transform="translate(30.67 93.58)"/><path class="cls-25" d="M315.54,118.5s10.95-14.44,7.38-33" transform="translate(30.67 93.58)"/><path class="cls-26" d="M277.33,102.59s-.06,9.72-4.49,13" transform="translate(30.67 93.58)"/><path class="cls-27" d="M271.59,97.35c.66-1.75,13.13-.59,12.25,2.53s-5.2,5.16-7.26,4.3S270.92,99.09,271.59,97.35Z" transform="translate(30.67 93.58)"/><path class="cls-28" d="M264.43,101.31s2.17,12.44,7.81,14.3c3.12,1,12.44-3.22,13.43-9" transform="translate(30.67 93.58)"/><path class="cls-23" d="M338.43,33.81c-4.42-6.25-19.68-4.24-31.12.4C299,37.59,291.92,44.3,291.92,44.3l25.61,32.28S342.85,40.05,338.43,33.81Z" transform="translate(30.67 93.58)"/><path class="cls-29" d="M304.44,48.76s12-9.35,21.17-10,6.32,5.37,2.94,10.77-11,13.6-11,13.6S303.72,52.39,304.44,48.76Z" transform="translate(30.67 93.58)"/><path class="cls-23" d="M301.07,51.09a5.48,5.48,0,0,1,.93-.64,12.82,12.82,0,0,1,5.41-3.77c2.08-.66,5-1.4,7.13-.79,1.06.3.57,1.88-.48,1.83-1.54-.07-3.6,1-5.1,1.85a19.61,19.61,0,0,1,6,1.83c.61.32.49,1.43-.34,1.31-2.34-.32-4.72-.07-7.09-.16a18.88,18.88,0,0,0-6.46.74C301.1,52.55,301.1,51.82,301.07,51.09Z" transform="translate(30.67 93.58)"/><path class="cls-23" d="M209,53.4s-3.76-18.07-1.74-28.69S212,1.91,221.21.52s28.58,34.53,28.58,34.53S215.3,45,209,53.4Z" transform="translate(30.67 93.58)"/><path class="cls-29" d="M234.4,35.44S223.67,9.06,217.48,10.83,213,45.77,213,45.77,228.1,35.05,234.4,35.44Z" transform="translate(30.67 93.58)"/><path class="cls-23" d="M232.69,40c1.29-1,2.61-1.89,4-2.78A20.31,20.31,0,0,0,234,33.1a35.65,35.65,0,0,0-7.14-7.29c-1.28-1-3.39.61-2.3,1.68a37.29,37.29,0,0,1,4.77,6.16,26.52,26.52,0,0,0-3.71-1.27,18.26,18.26,0,0,0-3.2-.73c-.75-.51-2.35.22-2.19,1.13l0,.18a1.11,1.11,0,0,0,1.17.72c.16,0,2,1,2.53,1.2,1.49.64,2.88,1.52,4.29,2.26,1.14.6,1.78,1.62,2.95,2.19A15.06,15.06,0,0,0,232.69,40Z" transform="translate(30.67 93.58)"/><path class="cls-25" d="M194.08,80.56s.26-11.7,5.3-21.57,8.16-11.07,8.16-11.07-3.43-32.21,6.23-43.13S234,8.45,237.87,14.85s7.5,13.82,7.5,13.82,38,1,50.95,11.12l7.26-3" transform="translate(30.67 93.58)"/><path class="cls-25" d="M172,42.89c8.3,8.79,25.45,37.4,32.65,64.87" transform="translate(30.67 93.58)"/><path class="cls-30" d="M260.57,92.73c2.4-4.65-2.05-17.59-13.19-19.85-10.13-2.06-16.67,1.91-17.95,8.13s5.81,15.2,14.29,17.08S258.18,97.38,260.57,92.73Z" transform="translate(30.67 93.58)"/><path class="cls-21" d="M257.88,91.3c2.56-5.87.46-12.37-4.69-14.51s-11.41.89-14,6.77-.45,12.37,4.7,14.52S255.33,97.18,257.88,91.3Z" transform="translate(30.67 93.58)"/><path class="cls-30" d="M308.48,87.18c7.77,3.57,8.93,10.92,6.55,16.24s-10.61,7.43-17.21,4.56-9.21-7.84-8.38-12.54S299.93,83.25,308.48,87.18Z" transform="translate(30.67 93.58)"/><path class="cls-21" d="M313.84,101.27c-1.51,5.55-6.61,9.08-11.38,7.89s-7.4-6.66-5.88-12.22,6.61-9.08,11.38-7.88S315.36,95.72,313.84,101.27Z" transform="translate(30.67 93.58)"/><path class="cls-31" d="M341.12,107.44c-8.67,1.32-16.54,2.45-25.77,1.42-1-.11-1.23-1.6-.3-1.88a65.39,65.39,0,0,1,13.8-2.49c3.83-.22,8.29-.36,12.56-.26,2,0,1.65,3.16-.29,3.21Z" transform="translate(30.67 93.58)"/><path class="cls-31" d="M335.29,125c-3.2-2.36-7.38-3.35-11-4.91-3.43-1.47-6.95-2.42-10.23-4.23-1-.54-.22-2,.73-2,4.24.08,8.23,1.72,12.14,3.24s7.18,3,10,6.11a1.24,1.24,0,0,1-1.61,1.82Z" transform="translate(30.67 93.58)"/><path class="cls-31" d="M194.48,71A97.65,97.65,0,0,1,210,77.09a85.4,85.4,0,0,1,15.72,10.16,1.48,1.48,0,0,1-.1,2.2l-.21.16a1.43,1.43,0,0,1-1.7.08c-1.89-.47-10.73-6.35-13.64-7.83-6.46-3.28-11.6-4.8-16.65-8.66A1.26,1.26,0,0,1,194.48,71Z" transform="translate(30.67 93.58)"/><path class="cls-31" d="M188.41,88.09c3.66-.72,15,1.89,18.32,2.37A75.85,75.85,0,0,1,224.91,95c1.35.56,1.18,2.91-.46,2.7-6.54-.82-12.9-2.18-19.41-3.21S194,92,187,90.62C186.17,90.45,184.75,88.81,188.41,88.09Z" transform="translate(30.67 93.58)"/></g></g></g></svg>