<svg xmlns="http://www.w3.org/2000/svg" xmlns:xlink="http://www.w3.org/1999/xlink" viewBox="0 0 103.06 209.54"><defs><style>.cls-1{isolation:isolate;}.cls-2{fill:#ffffe7;}.cls-10,.cls-11,.cls-12,.cls-13,.cls-14,.cls-15,.cls-16,.cls-17,.cls-18,.cls-19,.cls-2,.cls-20,.cls-21,.cls-3,.cls-4,.cls-5,.cls-6,.cls-7,.cls-8,.cls-9{fill-rule:evenodd;}.cls-3{fill:url(#Безымянный_градиент_89);}.cls-4{fill:url(#Безымянный_градиент_72);}.cls-5{fill:#4c2d41;}.cls-6{fill:url(#Безымянный_градиент_89-2);}.cls-17,.cls-7{fill:#e090c0;}.cls-13,.cls-14,.cls-17,.cls-19,.cls-7,.cls-9{mix-blend-mode:multiply;}.cls-18,.cls-7,.cls-9{opacity:0.5;}.cls-8{fill:url(#Безымянный_градиент_89-3);}.cls-9{fill:#f4aeab;}.cls-10{fill:url(#Безымянный_градиент_89-4);}.cls-11{fill:url(#Безымянный_градиент_89-5);}.cls-12{fill:#666072;}.cls-13{fill:#e0b8e0;}.cls-14{fill:#c39dd4;}.cls-15{fill:#f99581;}.cls-16{fill:#7e7988;}.cls-17{opacity:0.2;}.cls-18,.cls-20{fill:#fff;}.cls-18{mix-blend-mode:soft-light;}.cls-19{fill:#e0906a;}.cls-21{fill:#e07f6a;}</style><linearGradient id="Безымянный_градиент_89" x1="51.41" y1="209.54" x2="51.41" y2="2.11" gradientUnits="userSpaceOnUse"><stop offset="0" stop-color="#ffd6c9"/><stop offset="1" stop-color="#ffdbc2"/></linearGradient><linearGradient id="Безымянный_градиент_72" x1="48.79" y1="209.54" x2="48.79" y2="91.37" gradientUnits="userSpaceOnUse"><stop offset="0" stop-color="#463647"/><stop offset="1" stop-color="#615966"/></linearGradient><linearGradient id="Безымянный_градиент_89-2" x1="45.24" y1="145.48" x2="95.87" y2="145.48" xlink:href="#Безымянный_градиент_89"/><linearGradient id="Безымянный_градиент_89-3" x1="39.59" y1="149.18" x2="61.33" y2="149.18" xlink:href="#Безымянный_градиент_89"/><linearGradient id="Безымянный_градиент_89-4" x1="75.6" y1="198.57" x2="89.35" y2="198.57" xlink:href="#Безымянный_градиент_89"/><linearGradient id="Безымянный_градиент_89-5" x1="12.95" y1="169.81" x2="21.28" y2="169.81" xlink:href="#Безымянный_градиент_89"/></defs><g class="cls-1"><g id="Шар_2" data-name="Шар 2"><g id="objects"><path class="cls-2" d="M6.2,195.22s17.15-100.47,16.23-115-7.9-33.25-8.1-38.6,2.11,7.93,3,10.14-.64-7.64.28-16.71,6-12.59,8.62-13.19,3.82-2.64,5.76-6,4.06-12,6.73-13.73S36,7,35.71,9.47,38.66,4,49.9.89s9.28,2.91,9.5,3.8,3.23-2.92,6.36-3.08S81.18,9.77,82.17,12.42s.18-2.49-1.75-4.34,3.22.1,4,7,3.14,12.34,3.6,12.35,10.66,10,11.32,21.33S98,62.54,97.59,66.19s.91-.46,1.93-1.93-1.19,5.41-1.19,8.36,2.46-1.73,4.3-1.36-2.79.51-4.79,6.15S93.08,152,93.08,152Z"/><path class="cls-3" d="M97.51,75.88c-.23,1.73-2.61,10.23-3.37,15.49a18.46,18.46,0,0,0-.24,2.4c-.06,3.42-.09,7.36-.07,11.69C94,143.1,91,209.54,91,209.54H3.44S16.71,142.07,21.85,103c1.55-11.84,2.37-21.08,1.84-25-.23-1.66-.46-3.21-.71-4.68-2.28-13.61-5.37-20-5-30.49.19-5.23,4.18-14.64,7-18.85,2.38-3.53,5.21-2.12,5.21-2.12s1-7.09,10.39-15.26c4.28-3.75,12-5.33,16.1-4,1.9.61,1.69,3.05,2.22,4a5.71,5.71,0,0,1,5.45-3A24,24,0,0,1,78.11,8.93a25.52,25.52,0,0,1,8.61,19.64s1.47-1.32,4.17,1.69c2.52,2.82,6.24,9.83,7.36,14.43,2.26,9.35.83,8.11-1.41,19.1C96.42,65.89,97.88,73.17,97.51,75.88Z"/><path class="cls-4" d="M93.9,93.77c-.06,3.42-.09,7.36-.07,11.69C94,143.1,91,209.54,91,209.54H3.44S16.71,142.07,21.85,103a5.29,5.29,0,0,0,.4.74c.35.57,1,2.3,1.75,2.38.11-.86.46-2.67,1.2-3.24.49.5.52,1.62.73,2.31a15.18,15.18,0,0,0,.85,2.46,8.81,8.81,0,0,0,2,2.23c.74.64,1.95,1,2.23,2,.08-.72-.69-1.59-.25-2s1.23.4,1.68.7c.78.51,1.68.92,2.48,1.48a30,30,0,0,0,3.63,2,13.3,13.3,0,0,0,8.32,1.38,39.32,39.32,0,0,1,5.14-.84c-.59,0-1.12-.14-.78-.92.41-.94,2-.54,2.74-.71,1.32-.28,2.76-.63,4.08-1,.8-.22,1.57-.91,2.38-1-.14-.61-1.23-.37-1.36-1.25.93-.25,1.86-.48,2.81-.7,1.36-.3,2.66-.8,4-1.08s2.64-.31,3.95-.6c3.27-.73,6.43-2.49,9.33-4.13A52.91,52.91,0,0,0,90,95.35c1.4-1.32,2.81-2.62,4.15-4A18.46,18.46,0,0,0,93.9,93.77Z"/><path class="cls-5" d="M91,209.54S95,109,95.76,98.6s3.71-13.78,2.45-14.54-3,2.28-4.07,7.31S91,209.54,91,209.54Z"/><path class="cls-5" d="M3.44,209.54H0S19.23,120.72,19.4,111s-2.22-8.58-2.13-9.73,3.12,2.3,3,3.39S18.84,98,19,96.58s2.76,2.42,3.23,7.16S10.32,182.87,3.44,209.54Z"/><path class="cls-6" d="M95.87,98.3c-2.26,5.55-4,11.16-7.25,16.25-1.39,2.16-2.94,4.23-4.51,6.26a34.15,34.15,0,0,1-3.22,3,29.91,29.91,0,0,1-4.43,4,48.86,48.86,0,0,1-8.55,4.8c-1,.45-2.36.68-1.94,2.08.28.94,1.13,1.38,1.89,1.83.54.32,1.84.85,1.89,1.49-.84.08-1.48.87-2.15,1.34s-1.57,1-1.74,1.95c-.21,1.18.62,1.29,1.14,2.09.73,1.12-.24,1.43-1.18,2A36.26,36.26,0,0,1,58,149.7c-1.51.55-3,1.21-4.51,1.73s-3.21.62-4.77,1.14c-1.25.42-2.87,1.06-3.4,2.38-.44,1.11.75,2.12,1.25,3.12s1.31,1.71,1.07,2.88c-.15.75-1,1.48-1.2,2.25s-.15.37.14,1.11a9.73,9.73,0,0,0,.47,1c.48.88,1.51,1.75,1.14,2.87-.24.74-1.05,1.06-1.5,1.69-.77,1.08-.21,1.24.71,2,1.59,1.3,2.79,3.11,4.75,3.94a23.82,23.82,0,0,0,5.24,1.09,38.61,38.61,0,0,0,6.69.6c1.16,0,4,0,4.19,1.71a7.82,7.82,0,0,1-.76,2.09c-.44,1-1.24,1.64-1.67,2.61s-.8,2,.14,2.82,2,.25,2.74.7c1,.56.44,1.71.64,2.57a2.47,2.47,0,0,0,2,1.74c1.36.18,3.16-.71,4.49-1.1,1.59-.47,3.2-1.26,4.35.14a4.17,4.17,0,0,0,2.74,1.91c1.78.11,3.83-1.73,4.81-3.12a12.28,12.28,0,0,0,.89-2.37,16.86,16.86,0,0,0,.89-1.94c.44-1.56,1.34-3.32,1.48-4.93.3-3.32.47-6.54.47-9.92,0-3.12.49-6,.49-9.13a17.09,17.09,0,0,1,0-2.86,17.61,17.61,0,0,0,.53-2c0-.9-.07-1.8,0-2.69s.42-1.8.54-2.74a52.25,52.25,0,0,0,0-6.38c0-2.59.33-5.42-.11-8-1.14-6.76,0-13.73.09-20.53,0-3,.89-5.93,1-8.91A18.39,18.39,0,0,1,95.87,98.3Z"/><path class="cls-7" d="M20.76,103.71a23.42,23.42,0,0,0,.46,6.67c.48,1.75,1,3.49,1.51,5.24a124.28,124.28,0,0,0,4.67,13.62c.75,1.87,1.69,3.64,2.57,5.46A23.06,23.06,0,0,0,33,139.14c1.16,1.44,2,3,3.27,4.41-.63.84-2.06.13-2.3,1.45-.17.95.83,2.07,1,2.94.77,3-3.83,1.14-4.85,3.07-.73,1.39.91,4.48,1.36,5.67a54.38,54.38,0,0,0,4.3,8.85,49.88,49.88,0,0,0,8,10.49,45.85,45.85,0,0,0,7.84,5.51c-.36,1.41-5,1.29-2.44,2.94,2.32,1.49,5.06,2.36,7.35,3.93-.14.8-1.67,1.54-1.41,2.53.33,1.27,3,1.69,3.89,2.24a45.78,45.78,0,0,0,8.38,3.46c2.11.77,5,.76,6.83,2.1-.09.44-.38.59-.74.83-1,.65-2.21,1.3-3.21,1.89A36,36,0,0,1,66.07,203a19.57,19.57,0,0,1-4.29,1.33c-2.07.36-4.16.93-6.24,1.09-1.7.14-3.42,0-5.12,0s-3.54-.09-5.29,0c-2.35.08-4.62.55-7,.53s-4.95.14-7.39-.05a20.57,20.57,0,0,1-10.3-3.75,23.77,23.77,0,0,1-5.87-6.29c-1.59-2.44-1.95-5.24-3-7.9s-.95-5.31-1.4-8.06S8.93,174.7,9,172a61.22,61.22,0,0,1,1.42-10.78c.45-2.3,1-4.49,1.53-6.73s1.35-4.5,2-6.76c1.19-4.35,2.78-8.62,3.7-13a49,49,0,0,0,1.23-7.38c.07-1.34.41-2.6.5-3.93a34.81,34.81,0,0,1,.09-4.21,37.42,37.42,0,0,0,.38-7.11,32.75,32.75,0,0,1,0-4.32C20,106.58,20.05,104.67,20.76,103.71Z"/><path class="cls-8" d="M54.63,149.93s-10.13,2.16-14.31.53,11,.24,15-1a16.14,16.14,0,0,1-4.7-1.38c-1.47-.93,5.3,1.58,10.69-.83A19.69,19.69,0,0,1,54.63,149.93Z"/><path class="cls-9" d="M91,118.71a49.8,49.8,0,0,1-14.86,37.63S89.63,140.34,91,118.71Z"/><path class="cls-9" d="M92.92,126.08s-1.16,18-12.41,31.43C80.51,157.51,92.23,152.62,92.92,126.08Z"/><path class="cls-9" d="M73.5,184.79s14.51,1,18-14.42C91.45,170.37,88.5,182.29,73.5,184.79Z"/><path class="cls-10" d="M89.35,194.23s-4.92,8.85-11.82,8.67S84.1,201.79,89.35,194.23Z"/><path class="cls-11" d="M13,163.29s2.73,13.13,7.12,13S15.64,173.39,13,163.29Z"/><path class="cls-12" d="M93.82,103.57s-1.43,6.93-10.18,14-1.57,3.41,0,1.75-1.75,5.26-12,8.76-11-1.38-12,0,5.48,3.69,10.88.92c0,0-11.44,1.2-13.65,5.9s7-.78,8.11-1.1.09,4.33,1.66,5.34-3,1-4.55,2.62,2.59,2.89,1.79,4.14-4.06,3.25-4.06,3.25,6.58-3.06,7.87-4.54-2.09-2.95-1.29-4.11,2.94-1.82,3.31-2.51-6.08-3.15-2.09-4.93,1.3,2.4,1.85,3,.61-3.5,7.86-8.3S92,110.43,93.82,103.57Z"/><path class="cls-13" d="M13.59,179.8s9.33,15.34,19.75,17.87c0,0-12.07-9.75-16.77-19.32S13.59,179.8,13.59,179.8Z"/><path class="cls-13" d="M30.16,198.57s-13-8.31-17.47-15.44S12.18,195.32,30.16,198.57Z"/><path class="cls-12" d="M9,188.19s1.67,16.3,10.15,17.84S11.34,205.31,9,188.19Z"/><path class="cls-12" d="M26.61,139S29.35,151.68,38,154.87,30.05,151.16,26.61,139Z"/><path class="cls-12" d="M64.7,118.29s14.21,4,19.41-6.26S82.32,121.94,64.7,118.29Z"/><path class="cls-12" d="M55.2,190.93s4.44,3.93,15.48,4.29,1,2.8-6.12.39c0,0,5.38,3.43,14.72,1.71s-1.6,2.91-9.81,1.25S55.2,190.93,55.2,190.93Z"/><path class="cls-12" d="M47.94,190c-1.36-.25,8.85,9.46,14,10.2S53.1,197.13,47.94,190Z"/><path class="cls-14" d="M96.26,91.37a101.09,101.09,0,0,1-6.16,24c-5.17,13.46,2,32.82.93,67.2-.39,13.38-2.24,26.95-2.24,26.95H91S92.28,144.79,96.26,91.37Z"/><path class="cls-15" d="M97.58,67.63c-1.58-.73-9.33,2.28-14.86,8.92,0,0,1.52-2.83,7.43-7.81s7.08-2.09,7.08-2.09Z"/><path class="cls-15" d="M88.2,29C84,27.26,74.79,34.44,73.41,37s-2.85,12-2.85,12,.73-9.4,2.67-13.42,11.56-9,12.35-10.46,1.3.71,3.54,3.19Z"/><path class="cls-15" d="M60.41,4.35s-7.67,12.33-9,17.53-1.69,18.8-1.69,18.8-.55-13.31.46-18.8,7.5-16.1,8.36-16.65.8-2.57.8-2.57.24,1.69.52,1.78A.67.67,0,0,0,60.41,4.35Z"/><path class="cls-15" d="M30.22,21.83s-2.44,9.62-2.93,13.24a28,28,0,0,0,0,7,23,23,0,0,1-1.42-9.83c.31-6,2.95-9.82,3.26-11.08a2,2,0,0,1,1.69-1.39Z"/><path class="cls-16" d="M69,107.05s-15.7,2.3-18.57-3.48S56.17,108.3,69,107.05Z"/><path class="cls-16" d="M75.64,105.14s-6.28,2.55-10.94,1.17S71.78,107.23,75.64,105.14Z"/><path class="cls-16" d="M32.08,113.42s-8.11-11.43-7-26S25.07,104,32.08,113.42Z"/><path class="cls-17" d="M21.28,60.69c2.57-15.48,18-16.37,36.49-8.18s20,51,16.53,61.56S46.22,134,35.65,132.61,18.26,114.45,21.54,96.3,21.28,60.69,21.28,60.69Z"/><path class="cls-18" d="M51.41,21.88c2.11-6.14,19.15-2.16,19.15,13.72,0,4.11-.74,16.55-3.69,18.21S53.29,52.58,51.41,48,50.64,24.13,51.41,21.88Z"/><path class="cls-18" d="M74.3,37.72c-1.27,1-5.43,15-3.3,24s9.77,12.95,17.2,4.45S81.56,32.13,74.3,37.72Z"/><path class="cls-18" d="M48.79,19.72C46.4,15.83,32,18.09,29.35,25.35s-.92,20.09,1.47,21.27,14.47.55,16.13-5S48.79,19.72,48.79,19.72Z"/><path class="cls-18" d="M25,30c0-1.42-7.51,8.46-7,14.93s2.76,11.79,3.48,12,6.14-6.85,6-10.52S25,33.8,25,30Z"/><path class="cls-17" d="M82.17,12.42C77.82,6,70.25,18.73,69.63,23.36s.83,12.24,2.21,12.24,11.47-7.53,13.09-9.08S85.58,17.49,82.17,12.42Z"/><path class="cls-17" d="M59.19,4.07c-.75-3.15-7-.87-10.94,2.82s1.35,22.41,1.35,23S50.73,20,54.14,14A101.63,101.63,0,0,0,59.19,4.07Z"/><path class="cls-17" d="M99.26,47.39C97.89,41.8,89.16,68.71,88.2,70.45s5.21-2.75,7.67-3.35S100.53,52.62,99.26,47.39Z"/><path class="cls-19" d="M72.21,38.53s4.48-5.17,6.51-6.46,5-5.18,5-5.18-7.33,4.38-9.22,6.78A11.42,11.42,0,0,0,72.21,38.53Z"/><path class="cls-19" d="M60.47,4.75s-4.71,7.3-7.48,13a37.69,37.69,0,0,0-3.33,11.45,41.4,41.4,0,0,1,1.8-11.39c1.76-5.15,7.48-12.9,7.94-13.15A1.32,1.32,0,0,1,60.47,4.75Z"/><path class="cls-19" d="M27.41,34.24C25.85,33,27.22,22.9,30.82,19.13A99,99,0,0,0,27.41,34.24Z"/><path class="cls-19" d="M95.87,37.72c1.22,3.44,1.95,20.11,1.36,24.45s.07,3.13.07,3.13a97.25,97.25,0,0,0,2.33-12.9C100.3,45.88,95.87,37.72,95.87,37.72Z"/><path class="cls-20" d="M70.56,49s2-8.87,3.74-11.3,2.48.1,5.1-2.12a27.91,27.91,0,0,0,5-6.49s-10.09,5-11,7.09S70.56,49,70.56,49Z"/><path class="cls-20" d="M50.49,31.82s2.48-11.14,4.57-16,4.5-9.58,4.5-9.58S52.05,18.51,51.1,22.37A38.81,38.81,0,0,0,50.49,31.82Z"/><path class="cls-20" d="M88.52,50.65c-1,.21,1.12,8.78,1.76,9.52s3-4.58,3.14-5.89S88.52,50.65,88.52,50.65Z"/><path class="cls-20" d="M27.29,35.07s3.25-11.23,4.45-14.59S37.16,9.9,37.16,9.9s-5,5.65-6.34,9.82S27.29,35.07,27.29,35.07Z"/><path class="cls-21" d="M92.16,31.82c-.76,1.09-8.58,1.39-9.44,6.71s5.88-3.08,7.43-4.29,4,.8,4,.8Z"/><path class="cls-21" d="M73.9,5.39c-4.19-.9-13.3,5-12.81,11.52s4.17-7.1,8.54-9.56,7-.09,7-.09Z"/><path class="cls-21" d="M46.43,2.11C47.8,1.57,40,9.81,40.07,14S44.32,1.17,51.41.51Z"/></g></g></g></svg>