<svg xmlns="http://www.w3.org/2000/svg" viewBox="0 0 239.32 202.63"><defs><style>.cls-1{fill:#f2bd1d;}.cls-2{fill:#f24405;}.cls-3{fill:#fff;}.cls-4{fill:#f2acbf;}.cls-5{fill:#f28c1d;}.cls-6{fill:#421f37;}</style></defs><g id="Шар_2" data-name="Шар 2"><g id="OBJECTS"><path class="cls-1" d="M117.44,65.41a56.73,56.73,0,0,0,.33,14.89,45,45,0,0,0,3,12.65c.24.53.5,1.06.78,1.57a.51.51,0,0,1,.29.13,54.36,54.36,0,0,0,4.47,3.69,29.51,29.51,0,0,0,5.84,2.92,92,92,0,0,0,12.32,4.17c2.67.61,5.4.94,8.09,1.5s5.2,1.15,7.85,1.42c2.39.18,4.77.17,7.16.31,6,.3,12,.7,18,.72,2.91,0,5.81-.26,8.71-.39a142.2,142.2,0,0,0,15.55-1.32,48.86,48.86,0,0,0,11.08-2.3c2-.75,4.32-1.3,6-2.78a.65.65,0,0,1,.46-.24c.56-1,1.28-1.85,1.86-2.81A52.81,52.81,0,0,0,235,88a53.15,53.15,0,0,0,1.82-9.37,97.85,97.85,0,0,0,.73-11.73,78.12,78.12,0,0,0-.82-13.23,93,93,0,0,0-3.84-17.22c-1-2.67-2.27-5.4-4.54-7.24-1-.85-2.23-1.43-3.2-2.33a3.78,3.78,0,0,1-1-2.78c-.05-1.12-.07-2.23-.12-3.34a75.55,75.55,0,0,0-.87-9.86c-.71-4.15-3.64-10.34-8.28-6a31.06,31.06,0,0,0-4.72,6.74,43.69,43.69,0,0,0-2.8,5.91.42.42,0,0,0,0,.1,3.41,3.41,0,0,0-.14.55c0,.13,0,.26-.05.39s0,.22,0,.33a2.59,2.59,0,0,1-.09.4.44.44,0,0,1-.72.15,2.34,2.34,0,0,1-.28-1.18,48.79,48.79,0,0,0-10.33-3.65,52.8,52.8,0,0,0-15.27-2.38,83.08,83.08,0,0,0-16.51,1.2A33.44,33.44,0,0,0,157,15.82l.21.65a2.68,2.68,0,0,1,.22,1.21.59.59,0,0,1-1.13.08c-.15-.47-.31-.93-.48-1.4-.08-.25-.17-.5-.26-.74s-.17-.49-.26-.74a36.54,36.54,0,0,0-4.17-8.51,15.64,15.64,0,0,0-4.3-4c-1.76-1.14-3.12,1.21-3.79,2.57-1.91,4.66-2.34,9.6-3.24,14.57-.26,1.19-.09,2.84-1.36,3.46-.8.29-1.66.39-2.45.74a16.92,16.92,0,0,0-5,3.52c-5,5-7.71,11.78-10.06,18.34C118.78,52,118.16,58.75,117.44,65.41Z"/><path class="cls-1" d="M1.76,125.88c-.67,4.87,0,9.75.54,14.61.74,7.45,2.34,14.94,6,21.53a74.79,74.79,0,0,0,5.39,7.58,66.07,66.07,0,0,0,10.63,11.53c4.82,3.78,10.45,6.24,16,8.74a68.32,68.32,0,0,0,13.86,5,112.89,112.89,0,0,0,14.79,3c4.79.59,9.55,1.33,14.36,1.74,4.51.25,9,.35,13.54.53,5.22.28,10.43.75,15.66.68A112.34,112.34,0,0,0,124.7,200c4.27-.42,8.76-1,12.34-3.55a19.72,19.72,0,0,0,5.85-6.41,6.58,6.58,0,0,0-.35-5.43c-3.17-7-19.52-3.82-26-3.47-4.62.37-9.26.54-13.87,1a103.83,103.83,0,0,1-13.88.8c-10.35-.26-20.78-1.12-30.74-4.15a51.34,51.34,0,0,1-11.56-5.21c-8.29-4.48-11.52-7.76-15-16.6a.92.92,0,1,1,1.68-.76,33.31,33.31,0,0,0,4.23,7.72c3.63,5.06,9.2,8.25,14.81,10.74,9.69,4.26,20.27,5.72,30.76,6.41,3.05.13,6.1,0,9.16-.14,5.43-.15,10.88-.08,16.3-.69,6.14-.62,12.26-1.62,18.45-1.47,4.39,0,9-.59,13.16,1.14a8.46,8.46,0,0,1,4.6,6.2c.8,3-.13,5.31-2,7.55l-.1.12a2.73,2.73,0,0,0,.52.14l.18.06a.85.85,0,0,1,.59-.12,61.19,61.19,0,0,0,6.49.81c3.34.2,7,.42,10.37.32,2.63-.13,5.16-.3,7.88-.47,5-.19,10-.6,15-1a1.13,1.13,0,0,1-.4-1,15.39,15.39,0,0,0-.29-1.65s0,0,0-.05v0c-.07-.27-.16-.55-.25-.83s-.09-.28-.14-.42a3.52,3.52,0,0,0-.15-.42c-.1-.29-.21-.57-.32-.85s-.12-.27-.17-.41l-.18-.41h0a27,27,0,0,0-2.28-4.08c-1.65-2.22-3.58-4.15-5.43-6.24a34.27,34.27,0,0,0-8.54-7.43,51.06,51.06,0,0,0-16.58-5.6c-3.08-.29-6.17-.64-9.26-.8a.77.77,0,0,1-1-.44c-.17-.93,1-.89,1.65-.84q2.56.15,5.13.42c7.62.77,13.75,1.43,20.49,5.52a40.54,40.54,0,0,1,6.85,4.84,53.56,53.56,0,0,1,5.71,6.24A27.25,27.25,0,0,1,182,184.6a98.18,98.18,0,0,1,2.83-10.91A34.75,34.75,0,0,1,196,155.57c2.61-2.4,5.82-3.91,8.93-5.53,1.83-1,3.65-2.06,5.56-2.95.38-.22.91.24.65.64a1.07,1.07,0,0,1-.49.37c-.87.42-1.74.87-2.59,1.34a83.41,83.41,0,0,0-9.23,5.9c-4.42,3.11-7.16,6.84-9.64,11.57a51.59,51.59,0,0,0-5.95,20.46,16.83,16.83,0,0,1,1.46,5.55.61.61,0,0,1-.19.47l.07.05.82-.07a.89.89,0,0,1,.73-.79,65.08,65.08,0,0,0,8.17-1.81c2.8-.8,5.52-1.87,8.31-2.7,4.17-1.35,8.38-2.77,11.93-5.43,3.21-2.32,5.52-5.55,7.64-8.85a52.12,52.12,0,0,0,7.53-19,41.35,41.35,0,0,0,.57-11.38c-.19-3.55-.42-7-.64-10.6-.24-4.11-.8-8.41-1.36-12.53-.38-2.78-.6-5.57-.78-8.38-2.95,2.86-7,4.19-10.91,5.32A57.11,57.11,0,0,1,202,119.62c-3.29.27-6.58.59-9.87.63-2.49.06-5,0-7.47-.13a8.65,8.65,0,0,1-1,3.39,16,16,0,0,1,2,1.18,11.43,11.43,0,0,1,2.73,2.82c2.31,3.2,2.57,7.75-.11,10.82a9.14,9.14,0,0,1-2.29,2.39A11.81,11.81,0,0,1,181,142.3a10.92,10.92,0,0,1-9.85-5.23,8.9,8.9,0,0,1-.52-6.59c1-3.51,4.3-6,7.79-6.71l.48-.07a6.22,6.22,0,0,1-1.59-3.68,77.64,77.64,0,0,1-8.07-.46c-4.15-.49-8.24-1.38-12.35-2.08s-8.36-1-12.44-2c-5.43-1.48-11-2.57-16.11-5.06-2.7-1.31-5.49-2.84-7.42-5.19a.63.63,0,0,1,0-.74.76.76,0,0,1-.16-.47c-.11-1.52-.13-3.06-.12-4.59,0-1,0-2,.1-3.06,0-.16,0-.33.06-.5a39.32,39.32,0,0,1-4.69-14.15c-.13,0-.26,0-.39,0-1.3,0-2.59-.33-3.89-.44s-2.72-.19-4.07-.37c-2.46-.27-4.88-.77-7.33-1.08q-8-.77-16-1.57c-4.93-.25-9.88-.19-14.82-.3-3.5-.09-7-.11-10.51,0a75.18,75.18,0,0,0-12.22,1.61,73.84,73.84,0,0,0-8.69,2.11,55.89,55.89,0,0,0-7.91,3.52,75.12,75.12,0,0,0-8.48,5,31,31,0,0,0-5.15,5c-2.09,2.49-4.19,5.12-6.13,7.75C5.66,109.59,3,117.71,1.76,125.88Z"/><path class="cls-2" d="M122,96.94v.82c0,1.73.12,3.46.28,5.19,0,.53.28,1.17-.11,1.62a.75.75,0,0,1-.14.12c2.86,3.15,7.17,4.45,11,6a107.63,107.63,0,0,0,17,4.22c3,.51,6,1.34,9,1.81,5.88.76,11.77,1.5,17.7,1.84,2.24.12,4.49.32,6.74.29-.22-2.88-1.55-6.63-3.12-8.32a1,1,0,0,1-.23-.09c-3.25,0-6.49,0-9.74-.18-4.88-.34-9.77-.71-14.61-1.45a89.75,89.75,0,0,1-12.07-2.27c-2.92-1-5.94-1.57-8.79-2.71a58.53,58.53,0,0,1-11.16-6.08h0l-.06,0-.35-.26-.09-.06a2.11,2.11,0,0,1-.23-.19l-.3-.23,0,0-.32-.26-.27-.23-.09-.07C122,96.58,122,96.76,122,96.94Z"/><path class="cls-2" d="M181.81,110.46l.05.07a16.32,16.32,0,0,1,2.82,8.32c2.77,0,5.54-.31,8.32-.44s5.41-.14,8.11-.31c3.2-.22,6.38-.71,9.54-1.22,5.63-.9,11.54-2.24,16-6,.24-.2.46-.53.74-.66,0-.65-.07-1.3-.11-2-.07-1.33-.25-2.7-.23-4-2.22,1.77-6,2.65-8.55,3.35a69.88,69.88,0,0,1-12.9,2.43c-4.63.18-9.22.8-13.85.89-3,0-5.91-.24-8.86-.36Z"/><path class="cls-1" d="M182,120.06l-3.45,0a4.47,4.47,0,0,0,2.12,3.41,1.42,1.42,0,0,0,1.29,0,.52.52,0,0,1,.33-.23,4.62,4.62,0,0,0,1.06-2.44c0-.21.06-.45.07-.69Z"/><path class="cls-3" d="M172.19,131.16a.64.64,0,0,1,.36,0c.68.29,1.35.59,2,.85a14.23,14.23,0,0,0,3.07.59,1,1,0,0,1,.57-.09,10.24,10.24,0,0,1,2.22.18l1.25,0a27.58,27.58,0,0,0,6.64-1l.26-.07a11,11,0,0,0-3.19-5.26,11.19,11.19,0,0,0-2.8-1.81l-.34.16a3.18,3.18,0,0,1-.51.13.61.61,0,0,1-.48.13,12.13,12.13,0,0,0-1.81-.06,7.75,7.75,0,0,0-4.1,1.39A7.53,7.53,0,0,0,172.19,131.16Z"/><path class="cls-3" d="M172,132.31a10,10,0,0,0,.18,2.78,6.34,6.34,0,0,0,1.82,3,7.51,7.51,0,0,0,5,2.35,12,12,0,0,0,6.73-1.65,9.36,9.36,0,0,0,2.94-4.74,6.66,6.66,0,0,0,0-1.41,2.3,2.3,0,0,0-.42.17,19.53,19.53,0,0,1-4.89,1.07,2.44,2.44,0,0,1-2,1.74,4.63,4.63,0,0,1-4.19-1.53,1,1,0,0,1-.14-.32,14.94,14.94,0,0,1-4.11-1A6.29,6.29,0,0,1,172,132.31Z"/><path class="cls-4" d="M213.64,59.51l-.31-.19a.81.81,0,0,1,.19.18l.07.11S213.62,59.54,213.64,59.51Zm-.42-.26a11.61,11.61,0,0,0-1.12-.55l.06,1a.77.77,0,0,1,.42-.45A.79.79,0,0,1,213.22,59.25Zm2.45,1.81c1,3.23,1.94,6.56,3.89,9.35C219.14,67,218.18,63.52,215.67,61.06Zm-3.4.38c.23,3.26.28,6.53.64,9.77,0-.41,0-.82,0-1.23A79.1,79.1,0,0,0,212.27,61.44Zm2.67,3.16c-.37-1.11-.71-2.14-1.1-3.34.33,3.75.57,7.62,1.81,11.2A51.84,51.84,0,0,0,214.94,64.6ZM218.87,72a6.14,6.14,0,0,1-1.58-1.92c0,1.43.44,3.1-.44,4.35A9.84,9.84,0,0,0,218.87,72Zm-2.22,2.59c-1.15.71-1.79-.52-2.1-1.46,0,.94,0,1.88-.12,2.81A8.85,8.85,0,0,0,216.65,74.58Zm-4.16,2c-.57-1.2-.42-2.64-.6-3.94-.28-2.88-.59-5.74-.82-8.62-.13,2.56-.38,5.14-.28,7.71a13.56,13.56,0,0,1,0,4.22.8.8,0,0,1-1.5,0h0c-.41-1.67,0-3.46,0-5.16.06-2.08,0-4.17,0-6.25-.22,2.22-.48,4.44-.68,6.67-.09.92-.19,1.85-.3,2.77-.1.49-.11,1.29-.77,1.31-1-.14-.69-1.67-.76-2.39,0-1.3.16-2.58.22-3.88-.25,1.32-.36,2.68-.73,4a1,1,0,0,1-1.64.44c-.49-.71-.21-1.73-.2-2.55.11-1.74.27-3.48.43-5.21-.35,1.28-.62,2.59-1,3.87a1,1,0,0,1-.41.57.75.75,0,0,1-1.12-.52,6.27,6.27,0,0,1-.05-1.06.74.74,0,0,1-.47-.88c.24-1,.49-1.92.69-2.93s1.4-.42,1.21.45A25,25,0,0,1,205,61.31c.3-.56,1.07-.12,1.12.39-.08,1.63-.33,3.28-.44,4.92.34-1.55.7-3.09,1.14-4.6.12-.45.25-.9.38-1.35a.49.49,0,0,1,.45-.36.5.5,0,0,1,.51.2c.19-.57.34-1.84,1.05-1.92.81.11.64,1.17.72,1.77a10.22,10.22,0,0,1,.37-2.13c-4.66-.7-8.58,3.73-8.8,8.16-.44,5.15,4,9.79,9,10.34A7.11,7.11,0,0,0,212.49,76.57ZM200.05,69c-.53-6.71,4.82-14.62,12.25-12.33.87-.52,2.84.84,3.66,1.31a12,12,0,0,1,5.14,6.7c2.34,6.65-1.56,12.53-8.3,13.88C206.85,79.81,200.41,75.07,200.05,69Z"/><path class="cls-4" d="M141.69,53.42a5.12,5.12,0,0,0-.54.1l-.1,0c.06,1,.06,2,.08,3l0,1.26c0-.29.06-.57.08-.85.06-.66.14-1.32.22-2S141.58,53.94,141.69,53.42Zm-4.11,3.19a2.45,2.45,0,0,1,.72-1.76.66.66,0,0,1,1,.45c.06-.42.12-.85.21-1.27a7.57,7.57,0,0,0-4,4.65c1.11-1,1.44,1.19,1.46,1.93.06-.54.13-1.08.2-1.61C137.32,58.2,137.42,57.4,137.58,56.61Zm15.88,1.7a21.74,21.74,0,0,1,1,2.06,21,21,0,0,1,1,3.08A9.72,9.72,0,0,0,153.46,58.31Zm-6.84,8.53a54.62,54.62,0,0,1-.92-6q.06,1.62.09,3.24t0,3.09Zm-2.51.94a108,108,0,0,1-1-12.82c.15-.52.7-1.05,1.27-.87s.7.81.88,1.3a1.2,1.2,0,0,1,.13-.33.82.82,0,0,1,.53-.4.66.66,0,0,1,.11-.73,1.17,1.17,0,0,1,.56-.27,11.12,11.12,0,0,0-3.59-.37c0,4.89-.15,9.84.6,14.69Zm-1.92.69c0-.51-.06-1-.08-1.51-.08-1.17-.15-2.33-.21-3.5-.08,1.72-.26,3.45-.2,5.17Zm-2.28.68.07,0c.17-3.42.32-6.84.21-10.27-.32,3.43-.37,6.88-.47,10.33Zm-1.83-8c-.16,1.93-.33,3.74-.34,5.7a.81.81,0,0,1-.92,1.05,1.79,1.79,0,0,0,1.32,1.37c0-1,0-2,0-3s-.07-2.31-.07-3.47C138.07,62.21,138.08,61.67,138.08,61.12Zm6.19,8.06-.4.15c.08.37.18.73.29,1.09,0-.39.07-.78.1-1.16Zm5.81-1a10.18,10.18,0,0,0-.13-2.76,53.38,53.38,0,0,1-1.84-7.35c-.37-1.18.14-2.87,1.57-1.82a6.14,6.14,0,0,1,.86,2.66,59.24,59.24,0,0,1,.93,6.35c.51,1.36.93,3,2.18,3.9,1.72-2.85-.41-9.18-2.32-11.66-1.18-1.65-2.31-3.12-4.57-2.58a28,28,0,0,1,.87,4.47c.32,1.84.54,3.69.71,5.54.07,1.14.13,2.27.14,3.41a6.56,6.56,0,0,0,1.23,2.53A9,9,0,0,0,150.08,68.21Zm-3.22,0-1.1.44a7.56,7.56,0,0,0,.86,3.13A19.36,19.36,0,0,0,146.86,68.17Zm6,2.75a3.4,3.4,0,0,1-1.24-1.39,7.1,7.1,0,0,1-.37,2.2,1.43,1.43,0,0,1-.27.46A8,8,0,0,0,152.82,70.92ZM148,73.2c.53-.12,1.06-.26,1.58-.43a2,2,0,0,1-1.23-.89,3.85,3.85,0,0,1-.38,1.19c0,.06-.07.11-.1.16Zm-5.64-3.29-.25.09-.37.14c0,.15,0,.29-.05.44h0a.74.74,0,0,1-1.46.07,8.64,8.64,0,0,1-1,.26l-.56.07a9,9,0,0,0,4.82,2.36,3.86,3.86,0,0,1-1-2.45C142.38,70.56,142.34,70.24,142.31,69.91ZM146,73.48a2,2,0,0,1-.36-.4,3.81,3.81,0,0,1-.29-.41,2.12,2.12,0,0,1-.52.83A11.42,11.42,0,0,0,146,73.48Zm-12.34-8.63c-.43-4,.44-8.79,3.58-11.5a10.4,10.4,0,0,1,12-.35,10.58,10.58,0,0,1,1.43,1.33,9.66,9.66,0,0,1,2.36,1.48,10.65,10.65,0,0,1,2.23,2.64c2.4,4.08,2.86,10-.6,13.59-2.17,2.29-5.45,3-8.48,3.31C139.23,76.05,134.7,71.56,133.69,64.85Z"/><path class="cls-4" d="M146.7,13.37c-.1.37-.19.74-.28,1.12a.63.63,0,0,1,.23.08.76.76,0,0,1,.17.13C146.78,14.26,146.75,13.81,146.7,13.37Zm-.55,3a4.26,4.26,0,0,0,.12,1.59l0-.05v0s0,0,0,0c.11.33.57.3.86.36a2.65,2.65,0,0,1-.77-1.41ZM149,18a1.29,1.29,0,0,1-.56-.55,1.18,1.18,0,0,1-.11-.19,1.21,1.21,0,0,1-.63,1A2.71,2.71,0,0,0,149,18Zm-4.5-3a28.35,28.35,0,0,1,1.15-4.64c.24-1.11,1.25-2.21,2.42-1.5a.69.69,0,0,1,.65-.36c.75.17.8,1.21,1.11,1.8.36.9.74,1.79,1.1,2.69.72,1.86,1.82,4.31.25,6A3.54,3.54,0,0,1,149,20.34C144.63,20.84,143.92,19,144.54,15Z"/><path class="cls-4" d="M215.55,14.23l-.67,1.42a.84.84,0,0,1,.91.35Q215.65,15.12,215.55,14.23Zm-1.5,3.28c-.17.38-.33.76-.49,1.14a.67.67,0,0,1,.36.14l.12-1.16ZM213,20.19a8.55,8.55,0,0,0-.54,2.43c.1.07.2.12.3.18l.44.22C213.14,22.08,213.06,21.13,213,20.19Zm2.32,2.36a4.89,4.89,0,0,1-.24.93,1,1,0,0,1-.17.28l.7.27-.13-.05.22.08c0-.15-.09-.29-.13-.44C215.48,23.27,215.39,22.91,215.32,22.55Zm3.26.46c-.18-2.72-.53-5.41-.91-8.1.32,3.16.51,6.34.53,9.52C218.76,24.25,218.54,23.46,218.58,23ZM212,24.93c-3.45-1.33-.83-5.43.17-7.67,1-2,1.92-4.08,2.89-6.11a1,1,0,0,1,2,0c1.09-1,1.45,1.45,1.6,2.14.49,2.33.76,4.7,1.13,7.06.19,2,1.35,5.06-1.18,6C216.36,26.85,214.05,25.84,212,24.93Z"/><path class="cls-5" d="M217.52,118.32l-1,.22v0a.65.65,0,0,1,0,.2Zm-34.5,3.9c-4.56.54-9.14-.07-13.7-.31-8.06-.3-16.23-.5-24.1-2.42a58.23,58.23,0,0,1-9-3.28c-3.83-1.67-7.74-3.29-11-6-1.36-1.21-3-2.44-3.55-4.23a.64.64,0,0,1,.89-.67,1.14,1.14,0,0,1,.52.52,12.66,12.66,0,0,0,2.23,2.22,30.57,30.57,0,0,0,7,3.91c.6-.48,1.36.11,2,.28a61.13,61.13,0,0,0,7.94,2.43c.28-.4.82-.2,1.22-.15.76.13,1.52.25,2.27.41,3.13.68,6.22,1.54,9.36,2.16,1.47.29,2.92.63,4.39.88,1.22.16,2.44.36,3.65.57a11.49,11.49,0,0,1,3,.79c3.78,0,7.56.07,11.34.28,2.78.11,5.53.82,8.32.69.26-.49.89-.42,1.36-.39q1.56.09,3.12.15a62.67,62.67,0,0,0,9.29-.48c4-.46,7.83-1.48,11.8-1.87a49.36,49.36,0,0,0,9.28-2.29c1.79-.69,3.45-1.69,5.2-2.48.65-.35,1.66-.66,1.91.32.09.67-.62,1.1-1,1.57a26.53,26.53,0,0,1-6.69,4.42c-1.17.63-2.34,1.3-3.56,1.83-4.23,1.81-8.92,2.08-13.46,2.39C196.35,123.64,189.7,122.56,183,122.22Z"/><path class="cls-5" d="M186.89,19.11a1,1,0,0,0,1-1.1c-.13-.81-.55-2.16-1.6-2s-.28,1.4-.4,2.09A1.06,1.06,0,0,0,186.89,19.11Z"/><path class="cls-5" d="M186.72,23.4l.09-.81c1.21-1-.62-2.78-1.7-1.7-.54.58-.19,1.42-.49,2.12C184.32,24.35,186.53,24.82,186.72,23.4Z"/><path class="cls-5" d="M183.29,18.45c.18-1.72-1.94-2.13-1.94-.24C181.05,19.54,183.31,19.86,183.29,18.45Z"/><path class="cls-5" d="M177.65,21.5a.92.92,0,0,0,.37-.77v-.34c.61-1.06-1.15-2-1.72-.92a4.42,4.42,0,0,0-.28,1.14A1,1,0,0,0,177.65,21.5Z"/><path class="cls-5" d="M184,27.94c0-1-.55-2.22-1.72-1.66-.87.46-.59,2.67.54,2.69A1,1,0,0,0,184,27.94Z"/><path class="cls-5" d="M173.44,21.62c1.19,0,1.09-1.7.44-2.29C172.32,18.35,171.77,21.67,173.44,21.62Z"/><path class="cls-5" d="M175.41,27.94c1.53,0,.78-2.92-.57-2.4-.57.21-.54.83-.39,1.31A1,1,0,0,0,175.41,27.94Z"/><path class="cls-5" d="M202.15,93.25c.63-.55.24-1.53.25-2.26a2.69,2.69,0,0,0-.41-1.45.69.69,0,0,0-1.22.59,13.59,13.59,0,0,1-.11,2.3A1,1,0,0,0,202.15,93.25Z"/><path class="cls-5" d="M199,93.88c0-.6-.21-1.41-.94-1.41s-.81.66-.89,1.18C196.94,94.92,199,95.22,199,93.88Z"/><path class="cls-5" d="M194.59,93.05c.13-.75-.21-1.89-1.17-1.48-.4.24-.44.75-.58,1.15C192.58,93.86,194.45,94.24,194.59,93.05Z"/><path class="cls-5" d="M194.21,102.16c0-.67.3-2.13-.79-2a.54.54,0,0,0-.41.51,8.51,8.51,0,0,1-.21,1.21C192.61,102.82,194.09,103.11,194.21,102.16Z"/><path class="cls-5" d="M186.63,100.31c0-.27.05-.53,0-.8a.61.61,0,0,0-1.11-.29,4.71,4.71,0,0,0-.25.75C185,100.89,186.49,101.28,186.63,100.31Z"/><path class="cls-5" d="M170,90.81c.7-.54.2-1.53.19-2.28a.81.81,0,0,0-1.47-.6,7.31,7.31,0,0,0-.38,2A1.06,1.06,0,0,0,170,90.81Z"/><path class="cls-5" d="M173.23,96.35c-.09-1.06-1.21-2.59-2.12-1.27-.26.43.06.93,0,1.4C171.12,97.88,173.49,97.79,173.23,96.35Z"/><path class="cls-5" d="M166.12,93.28a3.55,3.55,0,0,0-.34-1.37.85.85,0,0,0-1.22-.09,2.67,2.67,0,0,0-.44,1.46,1,1,0,0,0,1,1.09A.94.94,0,0,0,166.12,93.28Z"/><path class="cls-5" d="M153,87.54v-.25c1.14-1.17-1.22-2.53-1.8-1.05C150.14,88.5,152.69,89.39,153,87.54Z"/><path class="cls-5" d="M141.16,85.41c0-.33,0-.66,0-1,.78-1.65-1.91-2.14-2,.07C138.38,86.32,140.84,87.35,141.16,85.41Z"/><path class="cls-5" d="M160.35,161.22a1,1,0,0,0-.43-1.38c-1.27-.42-2.89-1.88-4.21-1.44-1.64,1.38.79,2.12,1.83,2.58C158.41,161.28,159.65,162.31,160.35,161.22Z"/><path class="cls-5" d="M167.77,159.6a.9.9,0,0,0,.48-1.23c-.42-.87-1.85-3-3-2.25a.73.73,0,0,0-.11,1h0a4.55,4.55,0,0,1,1,1.34C166.45,159.17,166.92,159.92,167.77,159.6Z"/><path class="cls-5" d="M169.28,165.4c.95-.44.16-1.48-.36-1.94-.23-.22-.53-.51-.88-.42-.68.19.06,1.36.15,1.82A.83.83,0,0,0,169.28,165.4Z"/><path class="cls-5" d="M160,157.28c1-1.08-1.1-2.47-2.09-2.35a1,1,0,0,0,.08,1.86C158.51,157.29,159.29,158,160,157.28Z"/><path class="cls-5" d="M83,92c1.23-1.65-4-2.16-5-2.32a.82.82,0,1,0-.15,1.64,23.71,23.71,0,0,1,3.92.63C82.2,92.15,82.62,92.4,83,92Z"/><path class="cls-5" d="M80.28,94.89c4.22-.18,2.51-3,1-1.93-.8.12-2.29-.09-2.15,1.14A1,1,0,0,0,80.28,94.89Z"/><path class="cls-5" d="M83.32,100.47c.3,0,.6,0,.91,0h0a.84.84,0,0,0,.9-.73c0-1-1.14-1-1.87-1C82,98.7,82.17,100.52,83.32,100.47Z"/><path class="cls-5" d="M74.35,95.17c.86-.72-.12-1.68-1-1.65S71,93,70.9,94.26c.07,1,1.26.86,2,.9C73.4,95.16,73.9,95.55,74.35,95.17Z"/><path class="cls-5" d="M73.67,101.22c.58-.24,1.37-.06,1.75-.64.51-1.09-.89-1.51-1.73-1.32h0A1,1,0,1,0,73.67,101.22Z"/><path class="cls-5" d="M70.28,83.89c.42-.76-.48-1.29-1.13-1.37-.48-.08-1-.36-1.48-.12A.81.81,0,0,0,68,83.89c.38,0,.75.07,1.12.13A.74.74,0,0,0,70.28,83.89Z"/><path class="cls-5" d="M56.78,93.46c.17-.79-.73-1.13-1.36-1.2s-1.62-.19-1.71.67a1,1,0,0,0,1,1h.9a.83.83,0,0,0,1.21-.48Z"/><path class="cls-5" d="M57.93,99.63c.31,0,.62-.08.93-.09a.73.73,0,0,0,.86-.3c.45-1.11-1.14-1.21-1.87-1.31A.86.86,0,1,0,57.93,99.63Z"/><path class="cls-5" d="M49,103.52c.55-.13,1.18.2,1.62-.28a1,1,0,0,0-.53-1.69C47.51,100.83,46.89,103.37,49,103.52Z"/><path class="cls-5" d="M81.84,186.94a.94.94,0,0,0-1-1c-.67,0-2.13-.17-1.9.91a.74.74,0,0,0,.68.5C80.4,187.6,81.65,188.07,81.84,186.94Z"/><path class="cls-5" d="M83.89,191.52a.71.71,0,0,0-.24-1.35c-.52.05-1.43-.38-1.71.23l.77.71-.08.16C83,191.38,83.46,191.68,83.89,191.52Z"/><path class="cls-5" d="M75.6,190.59a.83.83,0,0,0-.07-1.6,3.1,3.1,0,0,0-.75-.13.72.72,0,0,0-.49,1.24A1.68,1.68,0,0,0,75.6,190.59Z"/><path class="cls-5" d="M80.24,194c.34-1.33-2.48-1.9-2.51-.45C77.85,194.55,79.91,195.21,80.24,194Z"/><path class="cls-5" d="M26.66,155.07c1.79-.73-.15-2.82-.23-4.1a1.16,1.16,0,0,0-.79-1.12c-1.18-.27-1.35,1.11-1,1.93C25.05,152.92,24.89,155.36,26.66,155.07Z"/><path class="cls-5" d="M22.76,155.71c.37-.33.25-.8.22-1.23a.7.7,0,0,0-.08-.63.88.88,0,0,0-1.28-.21,1.68,1.68,0,0,0-.41,1.86A1,1,0,0,0,22.76,155.71Z"/><path class="cls-5" d="M16.19,159.39c1.3-.6.1-2-.05-2.93-.11-.56,0-1.33-.79-1.48C13.11,154.45,14.33,160.3,16.19,159.39Z"/><path class="cls-5" d="M91.67,137.17a.74.74,0,0,0,.62-1.28,1.16,1.16,0,0,0-.86-.24c-.45,0-.9-.07-1.35-.08a.78.78,0,0,0-.8.8C89.42,137.53,90.86,137.1,91.67,137.17Z"/><path class="cls-5" d="M95.09,141.87a.9.9,0,0,0,.42-.48.26.26,0,0,0,0,.07c.49-2.32-3.39-1.53-4.79-2a.93.93,0,1,0-.18,1.86C92.06,141.35,93.65,142,95.09,141.87Z"/><path class="cls-6" d="M110.18,186.47a96.27,96.27,0,0,0,12.39-2.29.51.51,0,0,0-.34-.85c-2.76.61-5.49,1.4-8.31,1.77-1.27.22-2.55.43-3.84.6C109.62,185.77,109.71,186.54,110.18,186.47Z"/><path class="cls-6" d="M110.89,188.13c2.51-.1,5-.17,7.52-.44.62-.08,1.23-.18,1.85-.24a.48.48,0,0,0,.32-.23c.24-.58-.32-.81-.8-.65a57.54,57.54,0,0,1-8.89.74A.41.41,0,0,0,110.89,188.13Z"/><path class="cls-6" d="M112.07,190.21a24.2,24.2,0,0,0,4.24-.52c.41-.05,1-.18.86-.72-.21-.72-1.25-.1-1.78-.1a55.26,55.26,0,0,1-7.92.62.44.44,0,0,0,0,.88C109,190.37,110.54,190.29,112.07,190.21Z"/><path class="cls-6" d="M103.73,187.71a.53.53,0,0,0,0-.88,4.59,4.59,0,0,0-1.32-.16l-2-.17a.46.46,0,0,0-.51.41.48.48,0,0,0,.39.55l2.67.3A1.25,1.25,0,0,0,103.73,187.71Z"/><path class="cls-6" d="M111.27,86c.22-.59-.34-.87-.82-1a31,31,0,0,0-4.36-1,102.08,102.08,0,0,0-12.9-1.79c-2.31-.2-4.61-.42-6.92-.63a.42.42,0,0,0-.46.37.44.44,0,0,0,.35.49c5.81.59,11.6,1.42,17.4,2.1a47.65,47.65,0,0,1,4.87,1.11c.54.17,1.09.31,1.62.53S111.06,86.56,111.27,86Z"/><path class="cls-6" d="M104.43,88.26c.85-1.29-2.66-1.78-3.44-2-1.72-.35-3.42-.74-5.14-1.06-2.41-.43-4.83-.77-7.25-1.09a.51.51,0,0,0-.13,1c2.87.39,5.74.86,8.61,1.27a24.43,24.43,0,0,1,6.51,1.72A.49.49,0,0,0,104.43,88.26Z"/><path class="cls-6" d="M97.55,89.34c.48-.1,1.94.27,1.87-.47a.36.36,0,0,0-.35-.32c-1.07,0-2.13,0-3.2,0l-3.23,0a.39.39,0,0,0-.38.4c0,.68,1.24.32,1.7.41C95.16,89.32,96.35,89.35,97.55,89.34Z"/><path class="cls-6" d="M98.29,92.87c.82,0,.71-1.34-.12-1.14a24.82,24.82,0,0,1-3.44-.4l-2.88-.44a.49.49,0,0,0-.54.44.5.5,0,0,0,.41.57C93.91,92.2,96.08,92.74,98.29,92.87Z"/><path class="cls-6" d="M231.84,45.83c.22-1.52-.21-8.78-1.58-9.41a.51.51,0,0,0-.47.85c1,2,1,4.47,1.27,6.61a11.18,11.18,0,0,1,0,1.83.41.41,0,0,0,.34.48A.4.4,0,0,0,231.84,45.83Z"/><path class="cls-6" d="M229.27,45.84c-.06-1.38-.09-2.76-.24-4.13-.12-.57-.07-1.9-1-1.65a.54.54,0,0,0-.15.86,33.88,33.88,0,0,1,.4,4.92A.48.48,0,1,0,229.27,45.84Z"/><path class="cls-6" d="M139.6,35.55c.76-1.78,1.74-3.49,2.37-5.31a.68.68,0,0,0-1.21-.54c-.87,1.73-1.44,3.6-2.26,5.35A.6.6,0,1,0,139.6,35.55Z"/><path class="cls-6" d="M137.6,36.18c.6-1.57,1.18-3.14,1.89-4.66a.64.64,0,0,0-.28-1.08.54.54,0,0,0-.55.28c-.37.8-.65,1.65-1,2.47s-.63,1.74-.95,2.61a.52.52,0,0,0,.25.64A.46.46,0,0,0,137.6,36.18Z"/><path class="cls-6" d="M134.76,35.68a25.28,25.28,0,0,1,2-3.58.47.47,0,0,0,0-.56c-.37-.45-.79.06-.95.43-.62,1.09-1.19,2.2-1.72,3.34A.4.4,0,0,0,134.76,35.68Z"/><path class="cls-6" d="M130.63,39.12c.71-1.83,1.42-3.65,2.19-5.46a8.67,8.67,0,0,0,.68-1.72.59.59,0,0,0-.95-.49,1.58,1.58,0,0,0-.38.68c-.85,2.19-1.69,4.37-2.5,6.56A.53.53,0,1,0,130.63,39.12Z"/><path class="cls-6" d="M207.17,180.67a81.94,81.94,0,0,1,10.77-8.13c.51-.38.05-1.31-.57-1a93.46,93.46,0,0,0-8.33,6.4c-.8.67-1.61,1.34-2.38,2.06a.46.46,0,0,0-.07.62A.4.4,0,0,0,207.17,180.67Z"/><path class="cls-6" d="M203.64,179.83a75.94,75.94,0,0,1,7.88-6.8c1.21.06.77-2.12-.9-.7-2.67,2.12-5,4.61-7.53,6.91C202.74,179.6,203.25,180.21,203.64,179.83Z"/><path class="cls-6" d="M200.27,180.26c1.22-1.37,2.5-2.68,3.75-4a18.46,18.46,0,0,1,3.48-3.14c.22-.28-.08-.75-.42-.59a9.34,9.34,0,0,0-1.87,1.56c-1.3,1.22-2.54,2.51-3.75,3.82-.57.61-1.13,1.23-1.69,1.85a.4.4,0,0,0,0,.53A.35.35,0,0,0,200.27,180.26Z"/><path class="cls-6" d="M199,179.26c1.34-1.6,2.6-3.21,4.07-4.67,1-.33.13-1.67-.63-.76-1.47,1.54-2.74,3.25-4.1,4.89C198,179.15,198.65,179.72,199,179.26Z"/><path class="cls-6" d="M196,178.84c1.22-1.32,2.4-2.67,3.65-4a.55.55,0,1,0-.52-.91c-1.26,1.39-2.51,2.81-3.77,4.2C195,178.59,195.56,179.29,196,178.84Z"/><path class="cls-6" d="M167.71,182.3a.73.73,0,0,0,.16-1.17,21.79,21.79,0,0,0-3.32-2.13c-1.71-.94-3.42-1.86-5.14-2.79a18.26,18.26,0,0,0-3.41-1.44.45.45,0,0,0-.55.33c-.13.52.42.63.8.74a41.92,41.92,0,0,1,6.29,3.31,42.39,42.39,0,0,1,4.31,2.8A.72.72,0,0,0,167.71,182.3Z"/><path class="cls-6" d="M163.8,185.43c1.63-1.15-5.86-5.5-6.86-6.06a16.43,16.43,0,0,0-2.34-1.06.42.42,0,0,0-.51.31.45.45,0,0,0,.29.54,27.47,27.47,0,0,1,4.09,2.06,16,16,0,0,1,4.69,3.72A.44.44,0,0,0,163.8,185.43Z"/><path class="cls-6" d="M160.65,186.07c1.25-1.19-6.07-5.46-7.12-5.93-.59-.25-.94.68-.37.94a24.11,24.11,0,0,1,6.47,4.62C159.89,186.11,160.18,186.48,160.65,186.07Z"/><path class="cls-6" d="M157.54,186.27c.29-.53-.28-.86-.69-1.06-.67-.37-1.33-.76-2-1.14-.85-.48-1.69-1-2.54-1.44a.45.45,0,0,0-.64.17.52.52,0,0,0,.17.68l2.52,1.49c.65.4,1.32.78,2,1.2C156.68,186.41,157.25,186.79,157.54,186.27Z"/><path class="cls-6" d="M128,113.29a.53.53,0,0,0-.16-.72c-3.27-2.1-6.65-4-9.73-6.43-.52-.34-1.14-1.34-1.79-.75-.57.79.69,1.27,1.16,1.71,3.14,2.28,6.54,4.18,9.79,6.3A.53.53,0,0,0,128,113.29Z"/><path class="cls-6" d="M123.06,113.88a.49.49,0,0,0-.15-.67c-1.13-.73-2.25-1.49-3.37-2.25s-2.3-1.67-3.47-2.45a.49.49,0,0,0-.54.79c1.08.9,2.31,1.63,3.46,2.44s2.25,1.51,3.39,2.25A.49.49,0,0,0,123.06,113.88Z"/><path class="cls-6" d="M121.18,115.91a.5.5,0,0,0-.14-.68c-.7-.52-1.38-1.06-2-1.56a34.61,34.61,0,0,1-3.43-3,.59.59,0,0,0-.68,0c-.47.41,0,1,.38,1.24.72.63,1.47,1.21,2.23,1.8,1,.75,2,1.51,3,2.26A.5.5,0,0,0,121.18,115.91Z"/><path class="cls-6" d="M118.54,117.22a.48.48,0,0,0-.14-.65l-1.53-1.2c-.44-.35-.88-.69-1.3-1.06-.24-.27-.67-.54-1-.21-.57.67,1.1,1.44,1.51,1.87l1.78,1.35A.48.48,0,0,0,118.54,117.22Z"/><path class="cls-6" d="M29.87,94.55a114.16,114.16,0,0,1,10.51-6.07,22.34,22.34,0,0,1,6.27-2.4.46.46,0,0,0,.1-.89,1.48,1.48,0,0,0-.88.06,62.54,62.54,0,0,0-11.94,5.47c-1.34.79-2.67,1.59-4,2.45-.31.26-.81.39-.93.8A.57.57,0,0,0,29.87,94.55Z"/><path class="cls-6" d="M33.16,96a43.63,43.63,0,0,1,8-3.65c.35-.14.17-.68-.19-.66-2.41.63-4.64,2.06-6.88,3.1l-1.3.68a.31.31,0,0,0-.09.42A.34.34,0,0,0,33.16,96Z"/><path class="cls-6" d="M36,98c1.81-1.26,3.66-2.46,5.54-3.63a.44.44,0,0,0,.07-.59c-.49-.66-1.42.46-1.94.69-1.41.9-2.79,1.83-4.16,2.79C35,97.52,35.52,98.23,36,98Z"/><path class="cls-6" d="M34.78,100.42a49.3,49.3,0,0,1,4.83-2c.47-.14.29-.87-.18-.83a4.8,4.8,0,0,0-1.16.39c-1.29.55-2.56,1.14-3.83,1.72C34,100,34.35,100.6,34.78,100.42Z"/><path class="cls-6" d="M9.69,117.72c.92-1.6,2-3.09,3-4.61a18.09,18.09,0,0,1,2.72-3.32c1.17-1,2.3-2.16,3.75-2.6.89,0,.77-1.2-.06-1.18a4,4,0,0,0-2,1,15.82,15.82,0,0,0-3.68,3.53,66.47,66.47,0,0,0-4.48,6.8C8.67,117.78,9.43,118.2,9.69,117.72Z"/><path class="cls-6" d="M12.14,119.08a26.93,26.93,0,0,1,5.54-6.39.53.53,0,0,0-.33-.92c-.28,0-.51.17-.72.34a32.92,32.92,0,0,0-5.26,6.44C11.05,119,11.81,119.56,12.14,119.08Z"/><path class="cls-6" d="M13.53,120.57c1.92-2.09,3.9-4.12,6-6.06.39-.65-.66-1.13-.94-.44C16.61,116,14.76,118,12.91,120,12.56,120.38,13.18,120.94,13.53,120.57Z"/><path class="cls-6" d="M83.87,178.2a.46.46,0,0,0-.36-.52c-2.15-.36-4.3-.8-6.45-1.23a56.3,56.3,0,0,1-10.3-2.75c-1.21-.68-1.65.81-.31,1a91,91,0,0,0,11.85,2.91c1.3.24,2.6.48,3.84.68C82.63,178.32,83.71,178.86,83.87,178.2Z"/><path class="cls-6" d="M83.79,175.31a.49.49,0,0,0-.43-.49c-2.09-.17-4.18-.36-6.27-.55-2.45-.21-4.88-.59-7.32-.94a.55.55,0,0,0-.13,1.07c2.24.41,4.54.52,6.81.71s4.57.41,6.86.6A.43.43,0,0,0,83.79,175.31Z"/><path class="cls-6" d="M80,172.26a.38.38,0,0,0-.34-.38c-1.2-.14-2.41-.23-3.62-.3a25,25,0,0,0-3.57,0,.39.39,0,0,0,.11.76,43.77,43.77,0,0,1,7,.27A.34.34,0,0,0,80,172.26Z"/><path class="cls-6" d="M72.24,170.48c2.82-.08,5.65-.07,8.47,0a.51.51,0,0,0,.49-.54.57.57,0,0,0-.57-.5c-3-.06-6-.27-8.93-.23a.62.62,0,0,0-.53.66C71.21,170.37,71.79,170.52,72.24,170.48Z"/><path class="cls-6" d="M186.31,194.39c7.18-1.18,14.44-2.6,21-5.8,4.73-2,9.41-4.56,12.81-8.5a56.52,56.52,0,0,0,5.31-7.87,51,51,0,0,0,3.7-7.34c1.79-4.71,2.34-9.78,2.72-14.77a111.25,111.25,0,0,0-.39-18.88c-.48-4.12-1-8.24-1.4-12.36q-.53-4.38-1.16-8.75a34.76,34.76,0,0,1-.45-4.32,4.42,4.42,0,0,1,.42-2.39,65.59,65.59,0,0,0,6.45-11A58.88,58.88,0,0,0,239,77.59c.57-5.6.12-11.25-.09-16.86a78.57,78.57,0,0,0-2.37-19.5,33.77,33.77,0,0,0-4.81-10.85,20.94,20.94,0,0,0-2.38-2.84c-.57-.57-1.16-1.11-1.74-1.65-.34-.37-.83-.68-.84-1.22-.18-5.8-.26-11.72-2.32-17.22-.8-2.09-1.75-4.31-3.63-5.64-2.53-1.78-5.72-.52-7.44,1.8a48.06,48.06,0,0,0-5.24,8.71c-.76,1.76-3,5.28-1.91,7.15a.44.44,0,0,0,.72-.15c.16-.55.13-1.13.33-1.67a43.37,43.37,0,0,1,2.84-6,31.06,31.06,0,0,1,4.72-6.74c4.64-4.37,7.57,1.82,8.28,6a75.55,75.55,0,0,1,.87,9.86c.05,1.11.07,2.22.12,3.34a3.78,3.78,0,0,0,1,2.78c1,.9,2.19,1.48,3.2,2.33,2.27,1.84,3.53,4.57,4.54,7.24a93,93,0,0,1,3.84,17.22,78.12,78.12,0,0,1,.82,13.23,98.15,98.15,0,0,1-.73,11.74A53.21,53.21,0,0,1,235,88a52.81,52.81,0,0,1-5.72,11.57c-.7,1.15-1.58,2.18-2.17,3.39a1.6,1.6,0,0,0-.09.94c-.06,1.45.14,2.92.22,4.35.21,4,.44,8,1,12s1.12,8.42,1.36,12.53c.22,3.56.45,7,.64,10.6a41.35,41.35,0,0,1-.57,11.38,52.12,52.12,0,0,1-7.53,19c-2.12,3.3-4.43,6.53-7.64,8.85-3.55,2.66-7.76,4.08-11.93,5.43-2.79.83-5.51,1.9-8.31,2.7a65.08,65.08,0,0,1-8.17,1.81.92.92,0,0,0-.74,1A.89.89,0,0,0,186.31,194.39Z"/><path class="cls-6" d="M155.33,14.88c.18.49.35,1,.52,1.48a36.54,36.54,0,0,1,8-2.9,83.08,83.08,0,0,1,16.51-1.2,52.8,52.8,0,0,1,15.27,2.38c3.9,1.08,8,2.13,11.42,4.28a6.94,6.94,0,0,1,.24-1.27.42.42,0,0,1,0-.1c-.85-.47-1.72-.84-2.11-1-1.9-.85-3.79-1.72-5.72-2.49a52.54,52.54,0,0,0-14-3.4,56.61,56.61,0,0,0-24.36,2A42,42,0,0,0,155.33,14.88Z"/><path class="cls-6" d="M115.9,61.34a78.59,78.59,0,0,0-.38,14.55c.51,8.19,2,14.92,6.44,21.87,0-.46,0-.91,0-1.37.57.48,1.15.93,1.74,1.37A22.85,22.85,0,0,1,120.78,93a45,45,0,0,1-3-12.65,56.73,56.73,0,0,1-.33-14.89c.72-6.66,1.34-13.43,3.53-19.81C123.32,39,126,32.25,131,27.26a16.92,16.92,0,0,1,5-3.52c.79-.35,1.65-.45,2.45-.74,1.27-.62,1.1-2.27,1.36-3.46.9-5,1.33-9.91,3.24-14.57.67-1.36,2-3.71,3.79-2.57a15.64,15.64,0,0,1,4.3,4c2.41,3.44,3.84,7.44,5.17,11.39a.59.59,0,0,0,1.13-.08,2.68,2.68,0,0,0-.22-1.21c-.22-.7-.45-1.4-.68-2.1a44.12,44.12,0,0,0-1.84-4.52,21.86,21.86,0,0,0-6.41-8.71c-3.71-3.08-6,.69-7.3,4-2.1,5.08-2.92,10.55-3.83,15.94-13,6.77-16.44,17.3-19.35,30.75A91.19,91.19,0,0,0,115.9,61.34Z"/><path class="cls-6" d="M101.33,202.62q9.39.06,18.78-.43c4.39-.18,8.85-.46,13-1.92a21.39,21.39,0,0,0,9.47-6.59c1.92-2.24,2.86-4.6,2-7.55a8.46,8.46,0,0,0-4.6-6.2c-4.15-1.73-8.77-1.12-13.16-1.14-6.19-.15-12.31.85-18.45,1.47-5.42.61-10.87.54-16.3.7-3.06.12-6.11.26-9.16.13-10.49-.69-21.07-2.15-30.76-6.41-5.61-2.49-11.18-5.68-14.81-10.74a32.94,32.94,0,0,1-4.23-7.72.92.92,0,1,0-1.68.76c3.49,8.84,6.72,12.12,15,16.6a51.34,51.34,0,0,0,11.56,5.21c10,3,20.39,3.89,30.74,4.15a105.51,105.51,0,0,0,13.88-.79c4.61-.49,9.25-.66,13.87-1,6.45-.35,22.8-3.56,26,3.47a6.62,6.62,0,0,1,.36,5.43,19.86,19.86,0,0,1-5.86,6.41C133.46,199,129,199.56,124.7,200a112.17,112.17,0,0,1-12.15.82c-5.23.07-10.44-.4-15.66-.68-4.51-.18-9-.28-13.54-.53-4.81-.41-9.57-1.15-14.36-1.74a114.9,114.9,0,0,1-14.79-3,68.32,68.32,0,0,1-13.86-5c-5.55-2.5-11.18-5-16-8.74a66.37,66.37,0,0,1-10.63-11.52A76.06,76.06,0,0,1,8.32,162c-3.68-6.59-5.28-14.08-6-21.53-.52-4.85-1.21-9.74-.54-14.61,1.24-8.17,3.9-16.29,8.73-23,1.94-2.63,4-5.26,6.13-7.75a30.59,30.59,0,0,1,5.15-5,73.58,73.58,0,0,1,8.48-5,53.7,53.7,0,0,1,7.91-3.52,71.94,71.94,0,0,1,8.69-2.12,75.18,75.18,0,0,1,12.22-1.61c3.5-.08,7-.06,10.51,0,4.94.11,9.89,0,14.82.3q8,.8,16,1.57c2.45.31,4.87.81,7.33,1.08,1.35.18,2.71.28,4.07.37s2.59.4,3.89.44a1.73,1.73,0,0,0,.93-.14.53.53,0,0,0,0-.89.49.49,0,0,0-.39,0,50.75,50.75,0,0,1-8.31-1.2c-4.46-.68-9-1.35-13.46-2-3.43-.3-6.87-.34-10.31-.5-5.67-.39-11.34-.91-17-.78-4.44,0-8.87.45-13.29.79a92.79,92.79,0,0,0-10,1.22,62,62,0,0,0-12.59,4.43A52.35,52.35,0,0,0,15.33,94.12a55.73,55.73,0,0,0-12.62,20,45.7,45.7,0,0,0-2.5,13.2,72.16,72.16,0,0,0,.22,13.47,75.56,75.56,0,0,0,2.78,13.82,68.54,68.54,0,0,0,8.38,16,74.34,74.34,0,0,0,25.6,20.51,99.31,99.31,0,0,0,11.28,4,115.26,115.26,0,0,0,27,5.36C84.12,201,92.67,202.55,101.33,202.62Z"/><path class="cls-6" d="M158.65,196.67a111.25,111.25,0,0,0,18-1.15c2.21-.28,4.43-.47,6.65-.6a30.18,30.18,0,0,0,6.15-.86,1.79,1.79,0,0,0,.85-.5.52.52,0,0,0-.67-.77,15.53,15.53,0,0,1-4.23.58c-5.61.47-11.21.95-16.83,1.17-2.72.17-5.25.34-7.88.47-3.41.1-7-.12-10.37-.32a61.19,61.19,0,0,1-6.49-.81.79.79,0,1,0-.19,1.57c2.33.42,4.88.88,7.18,1.07C153.41,196.71,156,196.67,158.65,196.67Z"/><path class="cls-6" d="M145,195.08c.17-1-1.31-.87-1.93-1.14-.52-.06-1.54-.67-1.87-.07s1.05.84,1.51,1.1C143.34,195.1,144.58,196,145,195.08Z"/><path class="cls-6" d="M145.43,195.33c.28-.92-1-.91-1.6-1.12s-1.28-.52-1.53.13.72.71,1.09.86C144,195.31,145,196.11,145.43,195.33Z"/><path class="cls-6" d="M143.18,195a.73.73,0,0,0-.72-.86c-.41-.07-1-.31-1.28.09s.07,1,.57,1.07S143,195.66,143.18,195Z"/><path class="cls-6" d="M184.65,192.92a20.39,20.39,0,0,0-2.07-7,27.15,27.15,0,0,0-4.22-6.93,53.56,53.56,0,0,0-5.71-6.24,40.54,40.54,0,0,0-6.85-4.84c-6.74-4.09-12.87-4.75-20.49-5.52q-2.56-.27-5.13-.42c-.63-.05-1.82-.09-1.65.84a.76.76,0,0,0,1,.44c3.09.16,6.18.51,9.26.8a51.29,51.29,0,0,1,16.58,5.6,34.27,34.27,0,0,1,8.54,7.43c1.85,2.09,3.78,4,5.43,6.24a25.55,25.55,0,0,1,3.52,7.49,15.39,15.39,0,0,1,.29,1.65c0,.53.16,1.14.79,1.14A.71.71,0,0,0,184.65,192.92Z"/><path class="cls-6" d="M181.59,187.42a22.65,22.65,0,0,1,1.23,3.36.71.71,0,0,0,.28-.58,50.4,50.4,0,0,1,6-23.29c2.48-4.73,5.22-8.46,9.64-11.57a82,82,0,0,1,9.23-5.9c.85-.47,1.72-.92,2.59-1.34a1.07,1.07,0,0,0,.49-.37c.26-.4-.27-.86-.65-.64-1.91.89-3.73,1.92-5.56,2.95-3.11,1.62-6.32,3.13-8.93,5.53a34.75,34.75,0,0,0-11.15,18.12C183.48,178.2,182,182.72,181.59,187.42Z"/><path class="cls-6" d="M184.72,193.8a.5.5,0,0,0-.5-.47.46.46,0,0,0-.48.46.5.5,0,0,0,.5.47A.47.47,0,0,0,184.72,193.8Z"/><path class="cls-6" d="M191.72,110.84c4.63-.09,9.22-.71,13.85-.89a69.88,69.88,0,0,0,12.9-2.43c2.91-.8,7.42-1.84,9.39-4.15.39-.63-.29-1.41-.89-.78-1.68,1.48-4,2-6,2.78a48.86,48.86,0,0,1-11.08,2.3A142.2,142.2,0,0,1,194.34,109c-2.9.13-5.8.35-8.71.39-6,0-12-.42-18-.72-2.38-.14-4.77-.14-7.16-.31-2.65-.27-5.24-.9-7.85-1.42s-5.42-.89-8.09-1.5a92,92,0,0,1-12.32-4.17,29.51,29.51,0,0,1-5.84-2.92,54.36,54.36,0,0,1-4.47-3.69.59.59,0,0,0-.86.11.67.67,0,0,0,.14.9c4,3.62,8.85,6,13.74,8.18,2.85,1.14,5.87,1.76,8.79,2.71a89.75,89.75,0,0,0,12.07,2.27c4.84.74,9.73,1.11,14.61,1.45,4.17.27,8.35.11,12.52.21C185.81,110.6,188.76,110.84,191.72,110.84Z"/><path class="cls-6" d="M122.13,104.57c.39-.45.11-1.09.11-1.62a52.81,52.81,0,0,1-.23-7.44h0a.57.57,0,0,0-.9-.4c-.33.3-.31.8-.37,1.21-.09,1-.1,2-.1,3.06,0,1.53,0,3.07.12,4.59A.82.82,0,0,0,122.13,104.57Z"/><path class="cls-6" d="M192.11,120.25c3.29,0,6.58-.36,9.87-.63a57.11,57.11,0,0,0,14.56-2.44c4.17-1.21,8.58-2.66,11.57-6a.7.7,0,0,0-.15-.93c-.59-.43-1,.24-1.34.57-4.42,3.81-10.34,5.15-16,6-3.16.52-6.34,1-9.54,1.23-2.7.17-5.41.18-8.11.31-3.12.15-6.23.45-9.36.45-2.32,0-4.64-.17-6.95-.29-5.93-.34-11.82-1.08-17.7-1.84-3-.47-6-1.3-9-1.81a107.63,107.63,0,0,1-17-4.22c-3.91-1.59-8.3-2.91-11.15-6.18a.59.59,0,0,0-.79-.22.61.61,0,0,0-.13.88c1.93,2.35,4.71,3.88,7.42,5.19,5.08,2.49,10.68,3.58,16.11,5.06,4.08,1.06,8.3,1.27,12.43,2s8.21,1.6,12.36,2.09a118.51,118.51,0,0,0,12.78.5C185.39,120.1,188.75,120.33,192.11,120.25Z"/><path class="cls-6" d="M182.27,124.71c1.16-.44,1.65-1.67,2-2.76,1.15-3.55-.33-8.45-2.42-11.42-1.64-2.39-2.77-.27-1.55,0,1.95,2.11,3.54,7.41,3.06,10.24-.24,1.34-.92,3.41-2.67,2.66a4.46,4.46,0,0,1-2.13-3.47.63.63,0,1,0-1.26,0C177.43,122.36,179.51,125.65,182.27,124.71Z"/><path class="cls-6" d="M185.79,138.81a9.36,9.36,0,0,0,2.94-4.74c.38-2.92-1.28-5.74-3.32-7.71a11.61,11.61,0,0,0-2.88-1.85.66.66,0,0,1-.55-.33.64.64,0,0,1-.7.79,12.13,12.13,0,0,0-1.81-.06,7.75,7.75,0,0,0-4.1,1.39c-2.88,1.88-3.84,5.55-3.16,8.79a6.38,6.38,0,0,0,1.82,3,7.51,7.51,0,0,0,5,2.35A12,12,0,0,0,185.79,138.81Zm-14.63-1.74a8.9,8.9,0,0,1-.52-6.59c1-3.51,4.3-6,7.79-6.71.73-.1,3.08-.5,3.46.2-.06-1.92,3,.26,3.73.72a11.43,11.43,0,0,1,2.73,2.82c2.31,3.2,2.57,7.75-.11,10.82a9.14,9.14,0,0,1-2.29,2.39A11.81,11.81,0,0,1,181,142.3,10.92,10.92,0,0,1,171.16,137.07Z"/><path class="cls-6" d="M182.08,134a19.69,19.69,0,0,0,6.26-1.15c.34-.19.91-.23,1-.69s-.59-.62-1-.45a27.58,27.58,0,0,1-6.64,1,21.43,21.43,0,0,1-7.11-.66c-.69-.26-1.36-.56-2-.85a.58.58,0,0,0-.79.33c-.26.8.73,1,1.27,1.23C175.87,134,179,134,182.08,134Z"/><path class="cls-6" d="M181.47,135.64a2.4,2.4,0,0,0,2-1.86.75.75,0,0,0-.79-.82c-.61.08-1,.66-1.65.68-.08-1.45-1.83-.94-2.8-1.09a1,1,0,0,0-.95,1.56A4.63,4.63,0,0,0,181.47,135.64Z"/><path class="cls-6" d="M219.72,23.52c.71-.24.3-1.39.38-2V19.67c0-1.94-.16-10.93-2.47-11.15-2.51-.35-4.36,4.35-5.29,6.23L210.93,18c-.34.95-1.42,2.33-.11,3a1,1,0,0,0,1.29-.55c1-2.05,3.56-9.69,5.25-10.43,1.06,3.08,1.11,6.41,1.3,9.63C218.81,20.44,218.48,23.8,219.72,23.52Z"/><path class="cls-6" d="M144.6,17.87c.58-.58.42-1.7.63-2.44a38.35,38.35,0,0,1,.89-4.39c.16-.55.9-2.57,1.62-2.3a27.31,27.31,0,0,1,3.37,7.86c.12.49.09,1.45.86,1.13.52-.41.13-1.31.1-1.87a20.47,20.47,0,0,0-2.62-7.32,1.94,1.94,0,0,0-3.18-.76c-1.61,1.52-2.23,3.79-2.73,5.88-.23,1.06-.45,2.12-.62,3.2A1.07,1.07,0,0,0,144.6,17.87Z"/><path class="cls-6" d="M207.78,50.36a3.24,3.24,0,0,0,2.58-3.84,3,3,0,0,0-3.86-2C203.4,46,204.13,50.73,207.78,50.36Z"/><path class="cls-6" d="M157,50.41c4.39.06,3.26-5.08-.07-6-2.87-.77-3.75,2.6-2.57,4.65A2.49,2.49,0,0,0,157,50.41Z"/><path class="cls-6" d="M181.14,55.46c.93-.34,3.35-.8,2.88-2.19a.91.91,0,0,0-.6-.5.58.58,0,0,0-.42-.12c-1-.13-1.93-.17-2.9-.24s-1.88-.15-2.82-.21a.79.79,0,0,0-.77.25c-.47.87.69,1.51,1.2,2A3,3,0,0,0,181.14,55.46Z"/><path class="cls-6" d="M180.66,69.91a95.29,95.29,0,0,0,.49-12.64,11.83,11.83,0,0,0-.31-3.15.5.5,0,0,0-1,.23c0,3.59-.07,7.18-.14,10.77-.06,1.53-.2,3.07-.32,4.6A.63.63,0,1,0,180.66,69.91Z"/><path class="cls-6" d="M182.93,70.9a6.71,6.71,0,0,0,3.85-5.68c0-.56.2-1.58-.61-1.6a.52.52,0,0,0-.47.62c-.07.45-.16.89-.26,1.34-.78,3.31-4.7,5.3-7.66,3.33a9.73,9.73,0,0,1-3.72-4.6c-.14-.45-.34-1.05-.93-.88-1,.38.2,2,.42,2.65C175.09,69.49,179.13,72.62,182.93,70.9Z"/><path class="cls-6" d="M235.46,54.63a.69.69,0,0,0-.7-.6c-.94,0-1.88.06-2.82.14-3.07.23-6.12.7-9.16,1.17a83.76,83.76,0,0,0-12.47,2.53c-2.19.62-4.54,1-6.5,2.18-.68.65.14,1.51.87.9,4.14-1.94,8.69-2.58,13.15-3.39C220.9,57,224,56.41,227.06,56c2.61-.28,5.22-.63,7.85-.67A.6.6,0,0,0,235.46,54.63Z"/><path class="cls-6" d="M236.11,62.93a.75.75,0,0,0-.68-.74c-1.83-.16-3.68-.15-5.52-.16-3.92,0-7.85-.06-11.77.2-2.69.13-5.34.61-8,.85-1.2.08-2.39.22-3.58.39-.49.11-1.07.05-1.48.38a.6.6,0,0,0,.32,1,62.61,62.61,0,0,1,8.54-1,152.2,152.2,0,0,1,16-.44c1.84.05,3.68.07,5.52.21A.66.66,0,0,0,236.11,62.93Z"/><path class="cls-6" d="M235,74.76a.77.77,0,0,0-.49-.9c-1.78-.59-3.57-1.13-5.36-1.66-5.62-1.66-11.26-3.37-17.1-4a21.72,21.72,0,0,0-5.26-.5.54.54,0,0,0-.15,1,.6.6,0,0,0,.45.08,13.87,13.87,0,0,1,2.73.11,49.26,49.26,0,0,1,7.52,1.48c2.78.65,5.57,1.29,8.3,2.16s5.68,1.79,8.5,2.74A.66.66,0,0,0,235,74.76Z"/><path class="cls-6" d="M153.16,60.06a.48.48,0,0,0,.34-.42c0-.74-1.18-.84-1.69-1.17-1.74-.7-3.48-1.39-5.2-2.15a55.65,55.65,0,0,0-8-2.74,73.78,73.78,0,0,0-17.31-3.11.65.65,0,0,0,0,1.3A70.24,70.24,0,0,1,130.5,53a82.19,82.19,0,0,1,9.06,2.13c3,1,6,2,9,3.08,1.4.54,2.75,1.2,4.12,1.8A.74.74,0,0,0,153.16,60.06Z"/><path class="cls-6" d="M153.47,64.52c.45-.92-1.29-1-1.85-1.19l-2.73-.48c-1.82-.34-3.61-.79-5.44-1-3.7-.48-7.4-1-11.12-1.42a91.9,91.9,0,0,0-10.88-.22.58.58,0,0,0-.49.68c.11.64.74.55,1.23.5a144.4,144.4,0,0,1,16.23,1c3.17.39,6.31,1,9.49,1.27a34.87,34.87,0,0,1,4.88,1C153,64.7,153.31,64.76,153.47,64.52Z"/><path class="cls-6" d="M122,70c7.23-.57,14.42-1.55,21.67-1.85,3.42-.23,6.86-.7,10.28-.34a.51.51,0,0,0,.67-.68c-.22-.46-.81-.41-1.24-.44-3.17,0-6.35,0-9.52.07-4.57.26-9.14.65-13.71.94-2.8.2-5.6.45-8.4.68C120.73,68.49,121,70.05,122,70Z"/></g></g></svg>