<svg xmlns="http://www.w3.org/2000/svg" viewBox="0 0 69.25 138.58"><defs><style>.cls-1{fill:#e4e0e0;stroke:#a89898;}.cls-1,.cls-2,.cls-3{stroke-miterlimit:10;}.cls-2{fill:#b2b2a1;stroke:#4d4d45;stroke-width:0.5px;}.cls-3{fill:#f4ccbc;stroke:#cb9985;}</style></defs><g id="Шар_2" data-name="Шар 2"><g id="Шар_2-2" data-name="Шар 2"><path class="cls-1" d="M8.5,138.23c1-9,4-61.09,4.18-67.5.47-21.39,2-23.47-.53-27.64-3.51-5.73-10.23-8-10.72-13.61a13.72,13.72,0,0,1,.43-4.39,9.68,9.68,0,0,1,3.32-5.36c2.87-2.1,6.82-1.8,9.43-.53C17,20.33,18,22.14,18.36,21.87c.73-.48-3.91-5.64-3-11.25.55-3.36,3.13-7.15,7.07-8.14C27.11,1.31,31,4.75,31.22,5c4.71,4.3,4,12.25,4.71,12.21s-.61-6.38,2.87-10.09A10.21,10.21,0,0,1,50,5.05c.68.31,4,1.92,5,5.36,1.76,5.95-3.74,12.9-3.42,13.07.16.09,1-2.18,3-3.58a9.6,9.6,0,0,1,10.92.69c3.72,3.11,3.25,8.46,3.22,8.74-.79,7.59-9.34,8.05-12.54,17.29-.7,2-.68,5.54-.64,12.54.06,9.9.75,17.22.75,17.25,1,10.24,2.39,31.32,4.29,62.14"/><path class="cls-2" d="M3.69,20.67a20.62,20.62,0,0,0-2.44-1c-.74-.24-.91-.24-1-.17s.14.8,2.17,2.95"/><path class="cls-2" d="M20.93,2.53A20.75,20.75,0,0,0,19,.76c-.61-.48-.76-.55-.85-.5s-.14.81,1,3.52"/><path class="cls-2" d="M49.56,4.53a19.14,19.14,0,0,0,0-2.64c0-.78-.1-.93-.19-1s-.7.42-2,3.08"/><path class="cls-2" d="M66.92,21.76a18.58,18.58,0,0,0,1.47-2.18c.4-.68.44-.84.37-.91s-.81,0-3.33,1.51"/><path class="cls-3" d="M15.71,61a4.7,4.7,0,0,1,3.7-2.39,4.83,4.83,0,0,1,4.91,2.89c.53,1.7-1,2.77-.42,3.84.94,1.64,4.89-.17,6.35,1.62,1.05,1.28.3,4-1,5.45-2.63,3-7.58,1.54-8.44,1.29-.31-.09-5.35-1.6-5.78-4.66-.17-1.18.52-1.37.72-3.62C15.93,62.9,15.06,62.25,15.71,61Z"/><path class="cls-3" d="M56,80.05c-2.48-5.43-6.14-8.56-9-8-2.41.46-3.73,3.37-4.3,4.63-3.38,7.49,1.84,12,.53,21.41-1.11,8-5.55,10.09-4,13.47,1.17,2.61,5.49,5,19.48,4"/><path class="cls-3" d="M12,92.47c7.94-.69,10.49.84,11.32,2.41,1.94,3.7-4.66,9.51-2.27,14,1,1.83,2.66,1.78,4.88,3.1,6.88,4.1,11,16.44,6.89,21.51-3.49,4.27-13.78,4.48-23.08-2.36"/><path class="cls-3" d="M54.23,41.55c-.61-1.43-3.5-.38-5.25-2.57-1.08-1.34-.39-2.22-1.4-3.64-1.72-2.42-6.17-3.27-7.71-1.72s.3,4.24-1.07,5.25-3.15-1.2-5.68-.42c-1.76.54-3.38,2.34-3.22,3.85.23,2.15,4,3.77,7.13,4,4,.24,5.82-2,9-.71,1.56.63,1.72,1.42,3,1.48C51.83,47.15,55,43.27,54.23,41.55Z"/></g></g></svg>